<svg data-v-423bf9ae="" xmlns="http://www.w3.org/2000/svg" viewBox="0 0 747 90" class="iconLeftSlogan"><!----><!----><!----><g data-v-423bf9ae="" id="dcd36d41-4a7a-407a-aff6-7ad040c403ff" fill="black" transform="matrix(5.097706247069396,0,0,5.097706247069396,140.78845923386547,-9.991503961880916)"><path d="M9.88 10.82L9.67 13.58L0.63 13.58L0.63 13.05L0.63 13.05Q1.12 13.03 1.42 12.96L1.42 12.96L1.42 12.96Q1.72 12.89 1.89 12.73L1.89 12.73L1.89 12.73Q2.06 12.56 2.11 12.25L2.11 12.25L2.11 12.25Q2.17 11.94 2.17 11.45L2.17 11.45L2.17 4.93L2.17 4.93Q2.17 4.44 2.12 4.14L2.12 4.14L2.12 4.14Q2.07 3.84 1.93 3.66L1.93 3.66L1.93 3.66Q1.78 3.49 1.50 3.42L1.50 3.42L1.50 3.42Q1.22 3.36 0.77 3.33L0.77 3.33L0.77 2.80L5.03 2.80L5.03 3.33L5.03 3.33Q4.58 3.35 4.30 3.42L4.30 3.42L4.30 3.42Q4.03 3.49 3.89 3.67L3.89 3.67L3.89 3.67Q3.74 3.85 3.69 4.17L3.69 4.17L3.69 4.17Q3.64 4.49 3.64 5.03L3.64 5.03L3.64 11.06L3.64 11.06Q3.64 11.65 3.76 12.02L3.76 12.02L3.76 12.02Q3.88 12.39 4.17 12.59L4.17 12.59L4.17 12.59Q4.45 12.80 4.93 12.87L4.93 12.87L4.93 12.87Q5.40 12.95 6.13 12.95L6.13 12.95L6.13 12.95Q6.93 12.95 7.48 12.86L7.48 12.86L7.48 12.86Q8.02 12.77 8.39 12.54L8.39 12.54L8.39 12.54Q8.76 12.31 8.98 11.89L8.98 11.89L8.98 11.89Q9.20 11.48 9.35 10.82L9.35 10.82L9.88 10.82ZM16.66 9.77L16.66 8.40L16.66 8.40Q16.66 7.83 16.63 7.50L16.63 7.50L16.63 7.50Q16.60 7.17 16.48 6.99L16.48 6.99L16.48 6.99Q16.37 6.82 16.14 6.75L16.14 6.75L16.14 6.75Q15.90 6.69 15.50 6.65L15.50 6.65L15.50 6.16L18.03 6.16L18.03 10.46L18.03 10.46Q18.03 11.26 18.05 11.76L18.05 11.76L18.05 11.76Q18.07 12.26 18.12 12.52L18.12 12.52L18.12 12.52Q18.14 12.70 18.21 12.80L18.21 12.80L18.21 12.80Q18.27 12.91 18.40 12.97L18.40 12.97L18.40 12.97Q18.52 13.03 18.73 13.05L18.73 13.05L18.73 13.05Q18.93 13.08 19.25 13.08L19.25 13.08L19.25 13.57L16.94 13.73L16.79 12.05L16.73 12.05L16.73 12.05Q16.20 12.92 15.51 13.32L15.51 13.32L15.51 13.32Q14.81 13.72 14.06 13.72L14.06 13.72L14.06 13.72Q13.47 13.72 12.92 13.50L12.92 13.50L12.92 13.50Q12.36 13.27 12.08 12.89L12.08 12.89L12.08 12.89Q11.84 12.59 11.74 12.04L11.74 12.04L11.74 12.04Q11.63 11.49 11.63 10.63L11.63 10.63L11.63 8.40L11.63 8.40Q11.63 7.83 11.61 7.50L11.61 7.50L11.61 7.50Q11.58 7.17 11.46 6.99L11.46 6.99L11.46 6.99Q11.34 6.82 11.11 6.75L11.11 6.75L11.11 6.75Q10.88 6.69 10.47 6.65L10.47 6.65L10.47 6.16L13.01 6.16L13.01 9.98L13.01 9.98Q13.01 11.51 13.36 12.19L13.36 12.19L13.36 12.19Q13.72 12.88 14.50 12.88L14.50 12.88L14.50 12.88Q15.74 12.88 16.42 11.27L16.42 11.27L16.42 11.27Q16.49 11.10 16.53 10.96L16.53 10.96L16.53 10.96Q16.58 10.82 16.60 10.65L16.60 10.65L16.60 10.65Q16.63 10.49 16.65 10.28L16.65 10.28L16.65 10.28Q16.66 10.07 16.66 9.77L16.66 9.77ZM26.22 12.01L26.64 12.42L26.64 12.42Q26.14 13.03 25.34 13.38L25.34 13.38L25.34 13.38Q24.54 13.72 23.62 13.72L23.62 13.72L23.62 13.72Q22.88 13.72 22.25 13.45L22.25 13.45L22.25 13.45Q21.63 13.17 21.18 12.68L21.18 12.68L21.18 12.68Q20.73 12.18 20.49 11.48L20.49 11.48L20.49 11.48Q20.24 10.78 20.24 9.93L20.24 9.93L20.24 9.93Q20.24 9.03 20.52 8.31L20.52 8.31L20.52 8.31Q20.80 7.59 21.32 7.08L21.32 7.08L21.32 7.08Q21.83 6.57 22.55 6.29L22.55 6.29L22.55 6.29Q23.27 6.02 24.14 6.02L24.14 6.02L24.14 6.02Q24.68 6.02 25.13 6.11L25.13 6.11L25.13 6.11Q25.58 6.20 25.91 6.36L25.91 6.36L25.91 6.36Q26.24 6.52 26.42 6.75L26.42 6.75L26.42 6.75Q26.60 6.99 26.60 7.25L26.60 7.25L26.60 7.25Q26.60 7.53 26.42 7.69L26.42 7.69L26.42 7.69Q26.24 7.84 25.91 7.84L25.91 7.84L25.91 7.84Q25.66 7.84 25.49 7.74L25.49 7.74L25.49 7.74Q25.33 7.63 25.06 7.27L25.06 7.27L25.06 7.27Q24.78 6.94 24.52 6.81L24.52 6.81L24.52 6.81Q24.26 6.68 23.86 6.68L23.86 6.68L23.86 6.68Q22.86 6.68 22.35 7.45L22.35 7.45L22.35 7.45Q21.84 8.22 21.84 9.72L21.84 9.72L21.84 9.72Q21.84 11.33 22.41 12.16L22.41 12.16L22.41 12.16Q22.97 12.99 24.07 12.99L24.07 12.99L24.07 12.99Q24.65 12.99 25.17 12.76L25.17 12.76L25.17 12.76Q25.69 12.53 26.22 12.01L26.22 12.01ZM31.95 10.54L31.95 9.44L31.95 9.44Q31.15 9.74 30.60 10.04L30.60 10.04L30.60 10.04Q30.04 10.33 29.71 10.63L29.71 10.63L29.71 10.63Q29.37 10.92 29.23 11.21L29.23 11.21L29.23 11.21Q29.08 11.51 29.08 11.82L29.08 11.82L29.08 11.82Q29.08 12.28 29.39 12.57L29.39 12.57L29.39 12.57Q29.69 12.87 30.20 12.87L30.20 12.87L30.20 12.87Q30.56 12.87 30.88 12.68L30.88 12.68L30.88 12.68Q31.19 12.50 31.43 12.19L31.43 12.19L31.43 12.19Q31.67 11.87 31.81 11.45L31.81 11.45L31.81 11.45Q31.95 11.02 31.95 10.54L31.95 10.54ZM29.93 9.72L31.95 8.83L31.95 8.26L31.95 8.26Q31.95 6.55 30.49 6.55L30.49 6.55L30.49 6.55Q30.25 6.55 30.09 6.59L30.09 6.59L30.09 6.59Q29.92 6.64 29.81 6.73L29.81 6.73L29.81 6.73Q29.69 6.83 29.60 7.01L29.60 7.01L29.60 7.01Q29.51 7.20 29.43 7.46L29.43 7.46L29.43 7.46Q29.27 7.87 29.13 8.00L29.13 8.00L29.13 8.00Q28.98 8.13 28.70 8.13L28.70 8.13L28.70 8.13Q28 8.13 28 7.43L28 7.43L28 7.43Q28 6.76 28.71 6.39L28.71 6.39L28.71 6.39Q29.43 6.02 30.74 6.02L30.74 6.02L30.74 6.02Q32.14 6.02 32.73 6.52L32.73 6.52L32.73 6.52Q33.32 7.01 33.32 8.20L33.32 8.20L33.32 11.34L33.32 11.34Q33.32 12.94 33.95 12.94L33.95 12.94L33.95 12.94Q34.15 12.94 34.33 12.89L34.33 12.89L34.33 12.89Q34.51 12.84 34.64 12.63L34.64 12.63L34.83 12.96L34.83 12.96Q34.66 13.29 34.22 13.50L34.22 13.50L34.22 13.50Q33.77 13.72 33.28 13.72L33.28 13.72L33.28 13.72Q32.66 13.72 32.36 13.33L32.36 13.33L32.36 13.33Q32.06 12.94 32.06 12.22L32.06 12.22L31.99 12.22L31.99 12.22Q31.63 12.91 30.98 13.31L30.98 13.31L30.98 13.31Q30.34 13.71 29.55 13.71L29.55 13.71L29.55 13.71Q28.67 13.71 28.17 13.26L28.17 13.26L28.17 13.26Q27.66 12.81 27.66 12.05L27.66 12.05L27.66 12.05Q27.66 11.72 27.78 11.41L27.78 11.41L27.78 11.41Q27.90 11.10 28.17 10.82L28.17 10.82L28.17 10.82Q28.43 10.54 28.87 10.27L28.87 10.27L28.87 10.27Q29.30 10.00 29.93 9.72L29.93 9.72ZM36.30 13.09L36.02 13.58L35.71 13.58L35.71 11.17L36.06 11.17L36.06 11.17Q36.61 13.15 38.05 13.15L38.05 13.15L38.05 13.15Q38.61 13.15 38.94 12.87L38.94 12.87L38.94 12.87Q39.27 12.60 39.27 12.04L39.27 12.04L39.27 12.04Q39.27 11.83 39.21 11.68L39.21 11.68L39.21 11.68Q39.14 11.54 38.97 11.38L38.97 11.38L38.97 11.38Q38.79 11.21 38.48 11.00L38.48 11.00L38.48 11.00Q38.16 10.79 37.65 10.47L37.65 10.47L37.65 10.47Q37.17 10.18 36.82 9.93L36.82 9.93L36.82 9.93Q36.47 9.67 36.23 9.41L36.23 9.41L36.23 9.41Q35.99 9.16 35.88 8.86L35.88 8.86L35.88 8.86Q35.76 8.57 35.76 8.18L35.76 8.18L35.76 8.18Q35.76 7.70 35.92 7.30L35.92 7.30L35.92 7.30Q36.08 6.90 36.36 6.62L36.36 6.62L36.36 6.62Q36.64 6.34 37.02 6.18L37.02 6.18L37.02 6.18Q37.39 6.02 37.84 6.02L37.84 6.02L37.84 6.02Q38.22 6.02 38.63 6.14L38.63 6.14L38.63 6.14Q39.03 6.26 39.34 6.45L39.34 6.45L39.62 6.16L39.89 6.16L39.89 8.18L39.52 8.18L39.52 8.18Q39.21 7.32 38.85 6.96L38.85 6.96L38.85 6.96Q38.49 6.59 37.95 6.59L37.95 6.59L37.95 6.59Q37.48 6.59 37.19 6.85L37.19 6.85L37.19 6.85Q36.90 7.10 36.90 7.55L36.90 7.55L36.90 7.55Q36.90 7.78 36.98 7.96L36.98 7.96L36.98 7.96Q37.06 8.13 37.23 8.30L37.23 8.30L37.23 8.30Q37.39 8.47 37.65 8.64L37.65 8.64L37.65 8.64Q37.91 8.82 38.28 9.04L38.28 9.04L38.28 9.04Q38.88 9.42 39.30 9.72L39.30 9.72L39.30 9.72Q39.73 10.01 40.00 10.30L40.00 10.30L40.00 10.30Q40.26 10.58 40.39 10.89L40.39 10.89L40.39 10.89Q40.52 11.20 40.52 11.59L40.52 11.59L40.52 11.59Q40.52 12.59 39.87 13.15L39.87 13.15L39.87 13.15Q39.23 13.72 38.18 13.72L38.18 13.72L38.18 13.72Q37.09 13.72 36.30 13.09L36.30 13.09ZM46.63 13.58L41.59 13.58L41.59 13.05L41.59 13.05Q42.14 13.03 42.47 12.96L42.47 12.96L42.47 12.96Q42.80 12.89 42.97 12.73L42.97 12.73L42.97 12.73Q43.15 12.56 43.21 12.25L43.21 12.25L43.21 12.25Q43.27 11.94 43.27 11.45L43.27 11.45L43.27 4.93L43.27 4.93Q43.27 4.44 43.22 4.14L43.22 4.14L43.22 4.14Q43.18 3.84 43.03 3.66L43.03 3.66L43.03 3.66Q42.88 3.49 42.60 3.42L42.60 3.42L42.60 3.42Q42.32 3.36 41.87 3.33L41.87 3.33L41.87 2.80L46.06 2.80L46.06 2.80Q47.95 2.80 49 3.47L49 3.47L49 3.47Q50.05 4.14 50.05 5.36L50.05 5.36L50.05 5.36Q50.05 6.29 49.47 6.87L49.47 6.87L49.47 6.87Q48.89 7.46 47.63 7.84L47.63 7.84L47.63 7.90L47.63 7.90Q48.06 7.94 48.38 7.99L48.38 7.99L48.38 7.99Q48.71 8.05 48.96 8.13L48.96 8.13L48.96 8.13Q49.21 8.20 49.43 8.32L49.43 8.32L49.43 8.32Q49.64 8.43 49.85 8.57L49.85 8.57L49.85 8.57Q51.10 9.45 51.10 10.78L51.10 10.78L51.10 10.78Q51.10 11.52 50.69 12.16L50.69 12.16L50.69 12.16Q50.27 12.80 49.53 13.16L49.53 13.16L49.53 13.16Q49.29 13.29 49.04 13.36L49.04 13.36L49.04 13.36Q48.79 13.44 48.45 13.49L48.45 13.49L48.45 13.49Q48.12 13.54 47.68 13.56L47.68 13.56L47.68 13.56Q47.24 13.58 46.63 13.58L46.63 13.58ZM46.68 12.98L46.68 12.98L46.68 12.98Q49.21 12.98 49.21 10.81L49.21 10.81L49.21 10.81Q49.21 9.23 47.91 8.60L47.91 8.60L47.91 8.60Q47.68 8.50 47.47 8.43L47.47 8.43L47.47 8.43Q47.26 8.36 46.98 8.32L46.98 8.32L46.98 8.32Q46.70 8.29 46.32 8.27L46.32 8.27L46.32 8.27Q45.93 8.26 45.37 8.26L45.37 8.26L44.74 8.26L44.74 11.38L44.74 11.38Q44.74 12.24 45.19 12.61L45.19 12.61L45.19 12.61Q45.64 12.98 46.68 12.98ZM44.74 7.56L45.53 7.56L45.53 7.56Q45.96 7.56 46.26 7.55L46.26 7.55L46.26 7.55Q46.55 7.53 46.76 7.50L46.76 7.50L46.76 7.50Q46.97 7.46 47.13 7.40L47.13 7.40L47.13 7.40Q47.29 7.34 47.46 7.22L47.46 7.22L47.46 7.22Q47.91 6.94 48.10 6.55L48.10 6.55L48.10 6.55Q48.29 6.16 48.29 5.53L48.29 5.53L48.29 5.53Q48.29 4.42 47.75 3.94L47.75 3.94L47.75 3.94Q47.21 3.46 46.06 3.46L46.06 3.46L44.98 3.46L44.98 3.46Q44.74 3.46 44.74 3.70L44.74 3.70L44.74 7.56ZM58.67 11.89L59.11 12.28L59.11 12.28Q57.92 13.72 56.15 13.72L56.15 13.72L56.15 13.72Q55.33 13.72 54.66 13.45L54.66 13.45L54.66 13.45Q53.98 13.17 53.50 12.68L53.50 12.68L53.50 12.68Q53.02 12.18 52.75 11.49L52.75 11.49L52.75 11.49Q52.49 10.79 52.49 9.95L52.49 9.95L52.49 9.95Q52.49 9.10 52.77 8.37L52.77 8.37L52.77 8.37Q53.05 7.64 53.56 7.13L53.56 7.13L53.56 7.13Q54.07 6.61 54.77 6.31L54.77 6.31L54.77 6.31Q55.48 6.02 56.32 6.02L56.32 6.02L56.32 6.02Q57.68 6.02 58.42 6.75L58.42 6.75L58.42 6.75Q59.16 7.49 59.16 8.86L59.16 8.86L59.16 8.86Q59.16 9.06 59.09 9.10L59.09 9.10L59.09 9.10Q59.01 9.14 58.73 9.14L58.73 9.14L54.12 9.14L54.12 9.14Q54.10 9.25 54.08 9.41L54.08 9.41L54.08 9.41Q54.07 9.58 54.07 9.77L54.07 9.77L54.07 9.77Q54.07 10.50 54.24 11.10L54.24 11.10L54.24 11.10Q54.42 11.69 54.75 12.11L54.75 12.11L54.75 12.11Q55.08 12.53 55.53 12.76L55.53 12.76L55.53 12.76Q55.99 12.99 56.55 12.99L56.55 12.99L56.55 12.99Q57.13 12.99 57.64 12.73L57.64 12.73L57.64 12.73Q58.14 12.47 58.67 11.89L58.67 11.89ZM54.22 8.50L56.80 8.50L56.80 8.50Q57.08 8.50 57.25 8.48L57.25 8.48L57.25 8.48Q57.41 8.47 57.50 8.43L57.50 8.43L57.50 8.43Q57.58 8.39 57.61 8.31L57.61 8.31L57.61 8.31Q57.64 8.23 57.64 8.11L57.64 8.11L57.64 8.11Q57.64 7.46 57.22 7.08L57.22 7.08L57.22 7.08Q56.81 6.69 56.10 6.69L56.10 6.69L56.10 6.69Q54.59 6.69 54.22 8.50L54.22 8.50ZM66.49 12.01L66.91 12.42L66.91 12.42Q66.40 13.03 65.60 13.38L65.60 13.38L65.60 13.38Q64.81 13.72 63.88 13.72L63.88 13.72L63.88 13.72Q63.14 13.72 62.52 13.45L62.52 13.45L62.52 13.45Q61.89 13.17 61.45 12.68L61.45 12.68L61.45 12.68Q61.00 12.18 60.75 11.48L60.75 11.48L60.75 11.48Q60.51 10.78 60.51 9.93L60.51 9.93L60.51 9.93Q60.51 9.03 60.79 8.31L60.79 8.31L60.79 8.31Q61.07 7.59 61.58 7.08L61.58 7.08L61.58 7.08Q62.09 6.57 62.81 6.29L62.81 6.29L62.81 6.29Q63.53 6.02 64.40 6.02L64.40 6.02L64.40 6.02Q64.95 6.02 65.39 6.11L65.39 6.11L65.39 6.11Q65.84 6.20 66.17 6.36L66.17 6.36L66.17 6.36Q66.50 6.52 66.68 6.75L66.68 6.75L66.68 6.75Q66.86 6.99 66.86 7.25L66.86 7.25L66.86 7.25Q66.86 7.53 66.68 7.69L66.68 7.69L66.68 7.69Q66.50 7.84 66.18 7.84L66.18 7.84L66.18 7.84Q65.93 7.84 65.76 7.74L65.76 7.74L65.76 7.74Q65.59 7.63 65.32 7.27L65.32 7.27L65.32 7.27Q65.04 6.94 64.78 6.81L64.78 6.81L64.78 6.81Q64.53 6.68 64.12 6.68L64.12 6.68L64.12 6.68Q63.13 6.68 62.61 7.45L62.61 7.45L62.61 7.45Q62.10 8.22 62.10 9.72L62.10 9.72L62.10 9.72Q62.10 11.33 62.67 12.16L62.67 12.16L62.67 12.16Q63.24 12.99 64.33 12.99L64.33 12.99L64.33 12.99Q64.92 12.99 65.44 12.76L65.44 12.76L65.44 12.76Q65.95 12.53 66.49 12.01L66.49 12.01ZM72.20 13.58L72.20 13.09L72.20 13.09Q72.66 13.09 72.83 13.05L72.83 13.05L72.83 13.05Q73.01 13.01 73.01 12.94L73.01 12.94L73.01 12.94Q73.00 12.82 72.79 12.53L72.79 12.53L72.79 12.53Q72.58 12.24 72.24 11.83L72.24 11.83L70.76 10.04L70.24 10.53L70.24 11.35L70.24 11.35Q70.24 11.90 70.29 12.23L70.29 12.23L70.29 12.23Q70.34 12.56 70.47 12.75L70.47 12.75L70.47 12.75Q70.60 12.94 70.86 13.01L70.86 13.01L70.86 13.01Q71.12 13.08 71.54 13.09L71.54 13.09L71.54 13.58L67.56 13.58L67.56 13.09L67.56 13.09Q67.98 13.08 68.24 13.01L68.24 13.01L68.24 13.01Q68.50 12.94 68.65 12.75L68.65 12.75L68.65 12.75Q68.80 12.57 68.85 12.26L68.85 12.26L68.85 12.26Q68.91 11.96 68.91 11.45L68.91 11.45L68.91 5.59L68.91 5.59Q68.91 4.52 68.89 3.98L68.89 3.98L68.89 3.98Q68.87 3.43 68.74 3.23L68.74 3.23L68.74 3.23Q68.61 3.04 68.32 3.00L68.32 3.00L68.32 3.00Q68.03 2.97 67.54 2.97L67.54 2.97L67.54 2.49L70.24 1.96L70.24 9.65L71.54 8.37L71.54 8.37Q72.17 7.74 72.48 7.44L72.48 7.44L72.48 7.44Q72.79 7.14 72.79 6.99L72.79 6.99L72.79 6.99Q72.79 6.83 72.49 6.74L72.49 6.74L72.49 6.74Q72.20 6.65 71.65 6.65L71.65 6.65L71.65 6.16L75.29 6.16L75.29 6.65L75.29 6.65Q75.03 6.65 74.83 6.68L74.83 6.68L74.83 6.68Q74.63 6.71 74.46 6.79L74.46 6.79L74.46 6.79Q74.28 6.87 74.09 7.02L74.09 7.02L74.09 7.02Q73.89 7.17 73.64 7.39L73.64 7.39L71.62 9.18L74.40 12.32L74.40 12.32Q74.59 12.56 74.75 12.71L74.75 12.71L74.75 12.71Q74.91 12.85 75.07 12.94L75.07 12.94L75.07 12.94Q75.24 13.02 75.42 13.05L75.42 13.05L75.42 13.05Q75.61 13.09 75.88 13.09L75.88 13.09L75.88 13.58L72.20 13.58ZM82.31 11.89L82.74 12.28L82.74 12.28Q81.55 13.72 79.79 13.72L79.79 13.72L79.79 13.72Q78.96 13.72 78.29 13.45L78.29 13.45L78.29 13.45Q77.62 13.17 77.13 12.68L77.13 12.68L77.13 12.68Q76.65 12.18 76.38 11.49L76.38 11.49L76.38 11.49Q76.12 10.79 76.12 9.95L76.12 9.95L76.12 9.95Q76.12 9.10 76.40 8.37L76.40 8.37L76.40 8.37Q76.68 7.64 77.19 7.13L77.19 7.13L77.19 7.13Q77.70 6.61 78.41 6.31L78.41 6.31L78.41 6.31Q79.11 6.02 79.95 6.02L79.95 6.02L79.95 6.02Q81.31 6.02 82.05 6.75L82.05 6.75L82.05 6.75Q82.80 7.49 82.80 8.86L82.80 8.86L82.80 8.86Q82.80 9.06 82.72 9.10L82.72 9.10L82.72 9.10Q82.64 9.14 82.36 9.14L82.36 9.14L77.76 9.14L77.76 9.14Q77.73 9.25 77.71 9.41L77.71 9.41L77.71 9.41Q77.70 9.58 77.70 9.77L77.70 9.77L77.70 9.77Q77.70 10.50 77.87 11.10L77.87 11.10L77.87 11.10Q78.05 11.69 78.38 12.11L78.38 12.11L78.38 12.11Q78.71 12.53 79.16 12.76L79.16 12.76L79.16 12.76Q79.62 12.99 80.18 12.99L80.18 12.99L80.18 12.99Q80.77 12.99 81.27 12.73L81.27 12.73L81.27 12.73Q81.77 12.47 82.31 11.89L82.31 11.89ZM77.85 8.50L80.43 8.50L80.43 8.50Q80.71 8.50 80.88 8.48L80.88 8.48L80.88 8.48Q81.05 8.47 81.13 8.43L81.13 8.43L81.13 8.43Q81.21 8.39 81.24 8.31L81.24 8.31L81.24 8.31Q81.27 8.23 81.27 8.11L81.27 8.11L81.27 8.11Q81.27 7.46 80.86 7.08L80.86 7.08L80.86 7.08Q80.44 6.69 79.73 6.69L79.73 6.69L79.73 6.69Q78.22 6.69 77.85 8.50L77.85 8.50ZM86.56 10.88L86.56 11.35L86.56 11.35Q86.56 11.93 86.59 12.26L86.59 12.26L86.59 12.26Q86.62 12.60 86.74 12.78L86.74 12.78L86.74 12.78Q86.86 12.95 87.08 13.01L87.08 13.01L87.08 13.01Q87.30 13.06 87.71 13.09L87.71 13.09L87.71 13.58L83.99 13.58L83.99 13.09L83.99 13.09Q84.39 13.08 84.63 13.01L84.63 13.01L84.63 13.01Q84.87 12.95 84.99 12.78L84.99 12.78L84.99 12.78Q85.12 12.61 85.15 12.30L85.15 12.30L85.15 12.30Q85.19 11.98 85.19 11.45L85.19 11.45L85.19 9.81L85.19 9.81Q85.19 8.86 85.17 8.33L85.17 8.33L85.17 8.33Q85.15 7.80 85.03 7.55L85.03 7.55L85.03 7.55Q84.91 7.29 84.66 7.25L84.66 7.25L84.66 7.25Q84.41 7.20 83.96 7.20L83.96 7.20L83.96 6.71L86.41 6.17L86.60 7.91L86.66 7.91L86.66 7.91Q86.84 7.49 87.11 7.14L87.11 7.14L87.11 7.14Q87.39 6.79 87.71 6.54L87.71 6.54L87.71 6.54Q88.03 6.30 88.38 6.16L88.38 6.16L88.38 6.16Q88.73 6.02 89.10 6.02L89.10 6.02L89.10 6.02Q89.54 6.02 89.80 6.24L89.80 6.24L89.80 6.24Q90.06 6.45 90.06 6.82L90.06 6.82L90.06 6.82Q90.06 7.15 89.85 7.34L89.85 7.34L89.85 7.34Q89.64 7.53 89.25 7.53L89.25 7.53L89.25 7.53Q89.03 7.53 88.87 7.48L88.87 7.48L88.87 7.48Q88.72 7.42 88.60 7.36L88.60 7.36L88.60 7.36Q88.48 7.29 88.38 7.24L88.38 7.24L88.38 7.24Q88.27 7.18 88.14 7.18L88.14 7.18L88.14 7.18Q87.77 7.18 87.39 7.67L87.39 7.67L87.39 7.67Q87.01 8.15 86.80 8.89L86.80 8.89L86.80 8.89Q86.69 9.30 86.63 9.81L86.63 9.81L86.63 9.81Q86.56 10.32 86.56 10.88L86.56 10.88ZM90.54 12.81L90.54 12.81L90.54 12.81Q90.54 12.42 90.80 12.15L90.80 12.15L90.80 12.15Q91.07 11.89 91.45 11.89L91.45 11.89L91.45 11.89Q91.84 11.89 92.11 12.15L92.11 12.15L92.11 12.15Q92.37 12.42 92.37 12.81L92.37 12.81L92.37 12.81Q92.37 13.19 92.11 13.45L92.11 13.45L92.11 13.45Q91.84 13.72 91.45 13.72L91.45 13.72L91.45 13.72Q91.07 13.72 90.80 13.45L90.80 13.45L90.80 13.45Q90.54 13.19 90.54 12.81ZM100.09 13.72L100.09 12.40L100.03 12.40L100.03 12.40Q99.53 13.12 98.96 13.42L98.96 13.42L98.96 13.42Q98.39 13.72 97.62 13.72L97.62 13.72L97.62 13.72Q96.82 13.72 96.16 13.43L96.16 13.43L96.16 13.43Q95.49 13.15 95.01 12.63L95.01 12.63L95.01 12.63Q94.53 12.12 94.25 11.41L94.25 11.41L94.25 11.41Q93.98 10.70 93.98 9.86L93.98 9.86L93.98 9.86Q93.98 9.03 94.25 8.32L94.25 8.32L94.25 8.32Q94.53 7.62 95.01 7.10L95.01 7.10L95.01 7.10Q95.49 6.59 96.17 6.31L96.17 6.31L96.17 6.31Q96.84 6.02 97.62 6.02L97.62 6.02L97.62 6.02Q98.29 6.02 98.82 6.24L98.82 6.24L98.82 6.24Q99.34 6.47 99.83 6.96L99.83 6.96L99.83 5.53L99.83 5.53Q99.83 4.73 99.81 4.20L99.81 4.20L99.81 4.20Q99.79 3.67 99.75 3.47L99.75 3.47L99.75 3.47Q99.68 3.16 99.36 3.04L99.36 3.04L99.36 3.04Q99.04 2.91 98.31 2.91L98.31 2.91L98.31 2.49L101.18 1.96L101.18 10.04L101.18 10.04Q101.18 11.00 101.19 11.63L101.19 11.63L101.19 11.63Q101.21 12.25 101.28 12.52L101.28 12.52L101.28 12.52Q101.32 12.68 101.38 12.80L101.38 12.80L101.38 12.80Q101.44 12.91 101.56 12.97L101.56 12.97L101.56 12.97Q101.68 13.03 101.88 13.06L101.88 13.06L101.88 13.06Q102.09 13.09 102.41 13.09L102.41 13.09L102.41 13.57L100.09 13.72ZM99.81 10.23L99.81 9.31L99.81 9.31Q99.81 8.58 99.73 8.20L99.73 8.20L99.73 8.20Q99.65 7.83 99.43 7.55L99.43 7.55L99.43 7.55Q99.11 7.13 98.61 6.91L98.61 6.91L98.61 6.91Q98.11 6.69 97.62 6.69L97.62 6.69L97.62 6.69Q96.61 6.69 96.09 7.53L96.09 7.53L96.09 7.53Q95.56 8.36 95.56 9.79L95.56 9.79L95.56 9.79Q95.56 10.53 95.70 11.13L95.70 11.13L95.70 11.13Q95.83 11.73 96.09 12.16L96.09 12.16L96.09 12.16Q96.35 12.59 96.73 12.82L96.73 12.82L96.73 12.82Q97.12 13.05 97.62 13.05L97.62 13.05L97.62 13.05Q97.87 13.05 98.13 12.99L98.13 12.99L98.13 12.99Q98.39 12.94 98.64 12.82L98.64 12.82L98.64 12.82Q98.88 12.70 99.09 12.54L99.09 12.54L99.09 12.54Q99.30 12.38 99.44 12.17L99.44 12.17L99.44 12.17Q99.64 11.86 99.72 11.42L99.72 11.42L99.72 11.42Q99.81 10.99 99.81 10.23L99.81 10.23ZM109.63 11.89L110.07 12.28L110.07 12.28Q108.88 13.72 107.11 13.72L107.11 13.72L107.11 13.72Q106.29 13.72 105.62 13.45L105.62 13.45L105.62 13.45Q104.94 13.17 104.46 12.68L104.46 12.68L104.46 12.68Q103.98 12.18 103.71 11.49L103.71 11.49L103.71 11.49Q103.45 10.79 103.45 9.95L103.45 9.95L103.45 9.95Q103.45 9.10 103.73 8.37L103.73 8.37L103.73 8.37Q104.01 7.64 104.52 7.13L104.52 7.13L104.52 7.13Q105.03 6.61 105.73 6.31L105.73 6.31L105.73 6.31Q106.44 6.02 107.28 6.02L107.28 6.02L107.28 6.02Q108.64 6.02 109.38 6.75L109.38 6.75L109.38 6.75Q110.12 7.49 110.12 8.86L110.12 8.86L110.12 8.86Q110.12 9.06 110.05 9.10L110.05 9.10L110.05 9.10Q109.97 9.14 109.69 9.14L109.69 9.14L105.08 9.14L105.08 9.14Q105.06 9.25 105.04 9.41L105.04 9.41L105.04 9.41Q105.03 9.58 105.03 9.77L105.03 9.77L105.03 9.77Q105.03 10.50 105.20 11.10L105.20 11.10L105.20 11.10Q105.38 11.69 105.71 12.11L105.71 12.11L105.71 12.11Q106.04 12.53 106.49 12.76L106.49 12.76L106.49 12.76Q106.95 12.99 107.51 12.99L107.51 12.99L107.51 12.99Q108.09 12.99 108.60 12.73L108.60 12.73L108.60 12.73Q109.10 12.47 109.63 11.89L109.63 11.89ZM105.18 8.50L107.76 8.50L107.76 8.50Q108.04 8.50 108.21 8.48L108.21 8.48L108.21 8.48Q108.37 8.47 108.46 8.43L108.46 8.43L108.46 8.43Q108.54 8.39 108.57 8.31L108.57 8.31L108.57 8.31Q108.60 8.23 108.60 8.11L108.60 8.11L108.60 8.11Q108.60 7.46 108.18 7.08L108.18 7.08L108.18 7.08Q107.77 6.69 107.06 6.69L107.06 6.69L107.06 6.69Q105.55 6.69 105.18 8.50L105.18 8.50ZM114.42 13.73L112.06 7.90L112.06 7.90Q111.89 7.48 111.75 7.23L111.75 7.23L111.75 7.23Q111.62 6.99 111.47 6.86L111.47 6.86L111.47 6.86Q111.31 6.73 111.13 6.70L111.13 6.70L111.13 6.70Q110.94 6.66 110.67 6.65L110.67 6.65L110.67 6.16L114.38 6.16L114.38 6.65L114.38 6.65Q114.10 6.66 113.92 6.68L113.92 6.68L113.92 6.68Q113.74 6.69 113.63 6.74L113.63 6.74L113.63 6.74Q113.53 6.79 113.48 6.88L113.48 6.88L113.48 6.88Q113.44 6.97 113.44 7.14L113.44 7.14L113.44 7.14Q113.44 7.38 113.50 7.59L113.50 7.59L113.50 7.59Q113.57 7.80 113.64 8.01L113.64 8.01L115.12 12.07L115.18 12.07L116.45 9.06L116.45 9.06Q116.75 8.36 116.87 7.94L116.87 7.94L116.87 7.94Q117.00 7.52 117.00 7.20L117.00 7.20L117.00 7.20Q117.00 6.87 116.83 6.76L116.83 6.76L116.83 6.76Q116.66 6.65 116.10 6.65L116.10 6.65L116.10 6.16L118.89 6.16L118.89 6.65L118.89 6.65Q118.66 6.65 118.48 6.76L118.48 6.76L118.48 6.76Q118.30 6.87 118.16 7.04L118.16 7.04L118.16 7.04Q118.05 7.20 117.93 7.46L117.93 7.46L117.93 7.46Q117.81 7.71 117.69 7.99L117.69 7.99L117.69 7.99Q117.57 8.27 117.47 8.55L117.47 8.55L117.47 8.55Q117.38 8.82 117.29 8.99L117.29 8.99L115.23 13.73L114.42 13.73Z"></path></g><!----><g data-v-423bf9ae="" id="ada69e27-8cb6-4490-957b-32ff5b30b425" transform="matrix(1,0,0,1,-2,-19)" stroke="none" fill="black"><path d="M77.827 64.674H32.859a1.59 1.59 0 1 1 0-3.176h44.968V48.844H32.859a1.59 1.59 0 1 1 0-3.176h44.968V33.014H32.859a1.59 1.59 0 1 1 0-3.176h45.696c.92-1.471 2.632-2.455 4.657-2.455H99.47v-6.087C99.416 19.993 98.471 19 97.227 19H4.154C2.986 19 2 20.009 2 21.205v54.253h75.827V64.674zm-53.916-.878l-6.438 4.317a1.617 1.617 0 0 1-1.068.381c-.41 0-.828-.139-1.153-.421-.323-.28-.509-.676-.509-1.085s.185-.804.509-1.085l4.506-2.978-4.45-2.935c-.384-.328-.565-.713-.565-1.128 0-.414.18-.799.508-1.085a1.763 1.763 0 0 1 2.274 0l6.339 4.244c.31.255.462.573.462.904s-.15.649-.415.871zm.001-15.67l-6.438 4.317a1.617 1.617 0 0 1-1.068.381c-.41 0-.828-.139-1.153-.421a1.444 1.444 0 0 1-.509-1.085c0-.408.185-.804.509-1.085l4.506-2.978-4.45-2.935c-.379-.323-.565-.719-.565-1.127 0-.408.185-.804.509-1.085a1.759 1.759 0 0 1 2.274 0l6.339 4.243c.31.256.462.574.462.905 0 .33-.152.648-.416.87zm-.001-15.669l-6.438 4.317a1.617 1.617 0 0 1-1.068.381c-.41 0-.828-.139-1.153-.421h-.001a1.443 1.443 0 0 1-.508-1.087c0-.408.186-.803.509-1.084l4.506-2.977-4.45-2.936c-.379-.323-.565-.719-.565-1.127 0-.408.185-.804.509-1.085a1.763 1.763 0 0 1 2.274 0l6.339 4.244c.31.255.462.573.462.904s-.151.648-.416.871z"></path><path d="M83.213 30.558c-1.216 0-2.206.78-2.206 1.738v7.579H126v-7.579c0-.959-.989-1.738-2.206-1.738H83.213zM61.46 95.069H40.124a15.439 15.439 0 0 1-3.346 12.535h28.195c-3.046-3.372-4.323-8.016-3.513-12.535zM126 43.052H81.007v52.314l24.451.031H126V43.052zM95.473 74.307c.363.315.562.74.562 1.197 0 .456-.199.881-.562 1.196a1.93 1.93 0 0 1-1.266.462c-.455 0-.91-.154-1.265-.461l-.008-.007-6.921-6.246c-.269-.242-.416-.567-.416-.913s.147-.671.416-.913l6.922-6.245c.716-.622 1.829-.625 2.538-.006.363.315.562.739.562 1.196s-.199.881-.562 1.196l-5.492 4.772 5.492 4.772zm12.979-10l-7.194 12.031c-.328.553-.951.87-1.601.87-.273 0-.551-.056-.814-.174a1.705 1.705 0 0 1-.942-1.023 1.512 1.512 0 0 1 .146-1.243l.001-.001 7.184-12.031c.467-.79 1.531-1.097 2.419-.699.458.205.803.577.945 1.024a1.51 1.51 0 0 1-.144 1.246zm12.504 6.137l-7.431 6.225a1.91 1.91 0 0 1-1.256.457c-.455 0-.912-.154-1.268-.463-.363-.315-.562-.739-.562-1.196s.199-.881.562-1.196l5.492-4.772-5.492-4.772c-.363-.315-.562-.739-.562-1.196s.199-.881.562-1.196a1.964 1.964 0 0 1 2.531 0l7.424 6.22c.288.241.454.585.454.945s-.165.702-.454.944zM77.827 78.634H2.058v10.964c0 1.195.987 2.205 2.155 2.205h73.614V78.634zM105.47 98.573H81.007v8.689c0 .959.989 1.738 2.206 1.738h40.509c1.216 0 2.206-.78 2.206-1.738v-8.663l-20.458-.026zm-1.236 7.541c-1.279 0-2.32-1.044-2.32-2.328s1.041-2.328 2.32-2.328 2.319 1.044 2.319 2.328-1.041 2.328-2.319 2.328z"></path></g><!----><g data-v-423bf9ae="" id="db547c9a-7464-46e3-8a79-826b97d32ab4" fill="black" transform="matrix(1.5157577862731262,0,0,1.5157577862731262,143.46948472995257,55.846825193192934)"><path d="M0.35 10.04L0.35 10.04L0.84 9.98L1.03 10.85L1.03 10.85Q1.13 11.33 1.20 11.41L1.20 11.41L1.20 11.41Q1.27 11.49 1.68 11.64L1.68 11.64L1.68 11.64Q2.52 11.95 3.42 11.95L3.42 11.95L3.42 11.95Q4.20 11.95 4.74 11.49L4.74 11.49L4.74 11.49Q5.28 11.04 5.28 10.26L5.28 10.26L5.28 10.26Q5.28 9.65 4.82 9.21L4.82 9.21L4.82 9.21Q4.34 8.76 3.49 8.30L3.49 8.30L2.91 7.98L2.91 7.98Q2.17 7.55 1.93 7.36L1.93 7.36L1.93 7.36Q1.57 7.08 1.26 6.59L1.26 6.59L1.26 6.59Q0.95 6.10 0.95 5.46L0.95 5.46L0.95 5.46Q0.95 4.39 1.79 3.68L1.79 3.68L1.79 3.68Q2.63 2.97 3.74 2.97L3.74 2.97L3.74 2.97Q4.02 2.97 4.37 3.04L4.37 3.04L4.37 3.04Q4.57 3.08 4.90 3.17L4.90 3.17L5.14 3.25L5.14 3.25Q5.24 3.25 5.28 3.16L5.28 3.16L5.28 3.16Q5.33 3.05 5.33 2.98L5.33 2.98L5.35 2.88L5.82 2.85L6.04 5.41L5.53 5.43L5.41 4.18L5.41 4.18Q4.66 3.62 3.50 3.62L3.50 3.62L3.50 3.62Q2.86 3.62 2.35 4.05L2.35 4.05L2.35 4.05Q1.87 4.47 1.87 5.12L1.87 5.12L1.87 5.12Q1.87 5.72 2.32 6.17L2.32 6.17L2.32 6.17Q2.75 6.60 3.62 7.08L3.62 7.08L4.40 7.50L4.40 7.50Q5.35 8.03 5.88 8.59L5.88 8.59L5.88 8.59Q6.41 9.15 6.41 9.92L6.41 9.92L6.41 9.92Q6.41 10.99 5.56 11.76L5.56 11.76L5.56 11.76Q4.69 12.54 3.23 12.54L3.23 12.54L3.23 12.54Q2.67 12.54 2.17 12.41L2.17 12.41L2.17 12.41Q1.67 12.29 1.61 12.29L1.61 12.29L1.61 12.29Q1.36 12.29 1.36 12.58L1.36 12.58L1.37 12.76L0.90 12.80L0.90 12.80Q0.83 12.41 0.35 10.04ZM14.98 7.83L14.98 7.83L14.98 7.83Q14.98 6.62 15.38 5.68L15.38 5.68L15.38 5.68Q15.80 4.72 16.49 4.12L16.49 4.12L16.49 4.12Q17.18 3.51 18.04 3.19L18.04 3.19L18.04 3.19Q18.88 2.88 19.83 2.88L19.83 2.88L19.83 2.88Q21.09 2.88 22.14 3.40L22.14 3.40L22.14 3.40Q23.22 3.93 23.93 5.07L23.93 5.07L23.93 5.07Q24.63 6.17 24.64 7.75L24.64 7.75L24.64 7.75Q24.64 8.70 24.33 9.54L24.33 9.54L24.33 9.54Q24.02 10.38 23.42 11.10L23.42 11.10L23.42 11.10Q22.81 11.81 21.88 12.22L21.88 12.22L21.88 12.22Q20.91 12.63 19.72 12.64L19.72 12.64L19.72 12.64Q18.59 12.64 17.65 12.23L17.65 12.23L17.65 12.23Q16.71 11.83 16.15 11.14L16.15 11.14L16.15 11.14Q15.58 10.45 15.29 9.60L15.29 9.60L15.29 9.60Q14.98 8.72 14.98 7.83ZM16.24 7.38L16.24 7.38L16.24 7.38Q16.24 8.52 16.67 9.60L16.67 9.60L16.67 9.60Q17.07 10.64 18.00 11.33L18.00 11.33L18.00 11.33Q18.91 12.03 20.10 12.04L20.10 12.04L20.10 12.04Q21.47 12.04 22.41 11.01L22.41 11.01L22.41 11.01Q23.36 9.97 23.36 8.10L23.36 8.10L23.36 8.10Q23.36 5.99 22.20 4.72L22.20 4.72L22.20 4.72Q21.05 3.46 19.54 3.45L19.54 3.45L19.54 3.45Q19.02 3.45 18.47 3.65L18.47 3.65L18.47 3.65Q17.93 3.85 17.42 4.25L17.42 4.25L17.42 4.25Q16.88 4.68 16.56 5.48L16.56 5.48L16.56 5.48Q16.24 6.27 16.24 7.38ZM32.76 3.64L32.75 3.08L39.94 3.08L39.94 3.08Q39.95 4.14 40.00 5.28L40.00 5.28L39.46 5.30L39.46 5.30Q39.44 4.66 39.39 4.25L39.39 4.25L39.39 4.25Q39.35 3.89 39.29 3.80L39.29 3.80L39.29 3.80Q39.24 3.71 39.12 3.69L39.12 3.69L39.12 3.69Q39.03 3.68 38.44 3.68L38.44 3.68L36.06 3.68L36.06 3.68Q35.51 3.68 35.37 3.77L35.37 3.77L35.37 3.77Q35.25 3.86 35.25 4.33L35.25 4.33L35.25 6.28L35.25 6.28Q35.25 6.69 35.30 6.76L35.30 6.76L35.30 6.76Q35.37 6.84 35.70 6.84L35.70 6.84L37.82 6.84L37.82 6.84Q38.19 6.84 38.27 6.74L38.27 6.74L38.27 6.74Q38.35 6.64 38.35 6.17L38.35 6.17L38.35 5.63L38.87 5.63L38.87 8.97L38.35 8.97L38.35 8.26L38.35 8.26Q38.35 7.68 38.27 7.57L38.27 7.57L38.27 7.57Q38.19 7.46 37.85 7.46L37.85 7.46L35.75 7.46L35.75 7.46Q35.42 7.46 35.33 7.54L35.33 7.54L35.33 7.54Q35.25 7.63 35.25 7.89L35.25 7.89L35.25 11.20L35.25 11.20Q35.25 11.60 35.31 11.73L35.31 11.73L35.31 11.73Q35.40 11.87 35.66 11.87L35.66 11.87L36.60 11.87L36.60 12.41L33.00 12.41L33.00 11.87L33.41 11.87L33.41 11.87Q33.92 11.87 34.02 11.79L34.02 11.79L34.02 11.79Q34.11 11.70 34.11 11.33L34.11 11.33L34.11 4.24L34.11 4.24Q34.11 3.79 33.94 3.71L33.94 3.71L33.94 3.71Q33.80 3.64 32.76 3.64L32.76 3.64ZM48.33 5.35L47.83 5.33L47.83 5.33Q47.95 4.17 48.04 3.08L48.04 3.08L56.12 3.08L56.12 3.08Q56.03 4.13 56.01 4.53L56.01 4.53L56.01 4.53Q55.97 5.26 55.95 5.32L55.95 5.32L55.45 5.30L55.45 5.30Q55.53 4.34 55.53 4.16L55.53 4.16L55.53 4.16Q55.53 3.88 55.38 3.79L55.38 3.79L55.38 3.79Q55.21 3.69 54.81 3.69L54.81 3.69L53.20 3.69L53.20 3.69Q52.70 3.69 52.58 3.79L52.58 3.79L52.58 3.79Q52.48 3.87 52.47 4.36L52.47 4.36L52.47 11.22L52.47 11.22Q52.47 11.66 52.62 11.76L52.62 11.76L52.62 11.76Q52.77 11.87 53.29 11.87L53.29 11.87L53.85 11.87L53.86 12.41L50.17 12.40L50.17 11.87L50.39 11.87L50.39 11.87Q51.06 11.87 51.20 11.79L51.20 11.79L51.20 11.79Q51.34 11.70 51.34 11.28L51.34 11.28L51.34 4.48L51.34 4.48Q51.34 3.92 51.25 3.80L51.25 3.80L51.25 3.80Q51.15 3.69 50.72 3.69L50.72 3.69L49.25 3.69L49.25 3.69Q49.07 3.69 49 3.71L49 3.71L49 3.71Q48.93 3.72 48.82 3.72L48.82 3.72L48.82 3.72Q48.79 3.72 48.68 3.79L48.68 3.79L48.68 3.79Q48.60 3.84 48.57 3.86L48.57 3.86L48.57 3.86Q48.54 3.88 48.50 3.99L48.50 3.99L48.50 3.99Q48.47 4.05 48.45 4.14L48.45 4.14L48.45 4.14Q48.42 4.21 48.40 4.36L48.40 4.36L48.40 4.36Q48.37 4.59 48.37 4.61L48.37 4.61L48.37 4.61Q48.37 4.80 48.36 4.95L48.36 4.95L48.36 4.95Q48.36 5.02 48.35 5.15L48.35 5.15L48.35 5.15Q48.34 5.29 48.33 5.35L48.33 5.35ZM64.24 3.64L64.00 3.64L64.00 3.08L67.10 3.08L67.09 3.64L66.78 3.64L66.78 3.64Q65.95 3.64 65.95 3.94L65.95 3.94L65.95 3.94Q65.95 4.03 65.99 4.09L65.99 4.09L68.41 10.76L70.72 4.85L70.62 4.57L70.62 4.57Q70.59 4.52 70.57 4.44L70.57 4.44L70.57 4.44Q70.55 4.36 70.53 4.31L70.53 4.31L70.53 4.31Q70.51 4.25 70.49 4.22L70.49 4.22L70.49 4.22Q70.46 4.16 70.37 3.96L70.37 3.96L70.37 3.96Q70.29 3.80 70.17 3.71L70.17 3.71L70.17 3.71Q70.09 3.64 69.92 3.64L69.92 3.64L69.23 3.64L69.23 3.08L72.56 3.08L72.56 3.64L71.83 3.64L71.83 3.64Q71.59 3.64 71.53 3.68L71.53 3.68L71.53 3.68Q71.46 3.72 71.46 3.86L71.46 3.86L71.46 3.86Q71.46 4.00 71.71 4.76L71.71 4.76L73.75 10.72L76.25 4.18L76.25 4.18Q76.30 4.01 76.30 3.94L76.30 3.94L76.30 3.94Q76.30 3.75 76.13 3.69L76.13 3.69L76.13 3.69Q75.97 3.64 75.62 3.64L75.62 3.64L75.25 3.64L75.25 3.08L77.65 3.08L77.66 3.64L77.49 3.64L77.49 3.64Q77.14 3.64 77.05 3.77L77.05 3.77L77.05 3.77Q76.92 3.96 76.68 4.60L76.68 4.60L73.59 12.64L73.35 12.64L70.97 5.64L68.25 12.63L68.03 12.63L65.06 4.52L65.06 4.52Q64.85 3.96 64.68 3.79L64.68 3.79L64.68 3.79Q64.52 3.63 64.24 3.64L64.24 3.64ZM85.41 12.41L85.39 11.87L85.57 11.87L85.57 11.87Q85.96 11.87 86.08 11.73L86.08 11.73L86.08 11.73Q86.21 11.57 86.54 10.83L86.54 10.83L87.45 8.82L88.03 7.53L88.03 7.53Q88.29 6.97 88.33 6.86L88.33 6.86L88.33 6.86Q88.40 6.70 88.45 6.60L88.45 6.60L88.45 6.60Q88.50 6.51 88.52 6.45L88.52 6.45L88.61 6.21L90.04 2.74L90.34 2.74L90.34 2.74Q91.19 4.98 93.38 10.25L93.38 10.25L93.38 10.25Q93.83 11.34 94.02 11.64L94.02 11.64L94.02 11.64Q94.16 11.87 94.60 11.87L94.60 11.87L94.81 11.87L94.79 12.41L91.60 12.41L91.62 11.87L92.03 11.87L92.03 11.87Q92.65 11.87 92.65 11.70L92.65 11.70L92.65 11.70Q92.65 11.63 92.51 11.27L92.51 11.27L91.47 8.72L88.22 8.72L87.12 11.18L87.12 11.18Q86.98 11.50 86.98 11.63L86.98 11.63L86.98 11.63Q86.98 11.79 87.08 11.83L87.08 11.83L87.08 11.83Q87.17 11.87 87.55 11.87L87.55 11.87L88.13 11.87L88.13 12.41L85.41 12.41ZM89.91 4.79L88.49 8.10L91.23 8.10L89.91 4.79ZM102.87 3.64L102.48 3.64L102.50 3.08L105.72 3.08L105.72 3.08Q106.85 3.08 107.45 3.21L107.45 3.21L107.45 3.21Q108.10 3.37 108.56 3.75L108.56 3.75L108.56 3.75Q109.57 4.57 109.57 5.71L109.57 5.71L109.57 5.71Q109.57 6.43 109.09 7.04L109.09 7.04L109.09 7.04Q108.60 7.66 107.57 7.92L107.57 7.92L110.26 11.49L110.26 11.49Q110.56 11.87 110.86 11.87L110.86 11.87L111.46 11.87L111.49 12.41L109.46 12.41L106.46 8.10L106.29 8.10L106.29 8.10Q106.25 8.10 106.20 8.11L106.20 8.11L106.20 8.11Q106.14 8.11 106.13 8.11L106.13 8.11L106.13 8.11Q105.25 8.11 104.85 8.03L104.85 8.03L104.85 11.46L104.85 11.46Q104.85 11.76 104.99 11.81L104.99 11.81L104.99 11.81Q105.12 11.87 105.82 11.87L105.82 11.87L106.53 11.87L106.50 12.41L102.78 12.41L102.78 11.87L103.10 11.87L103.10 11.87Q103.56 11.87 103.63 11.81L103.63 11.81L103.63 11.81Q103.71 11.74 103.71 11.46L103.71 11.46L103.71 4.14L103.71 4.14Q103.71 3.82 103.52 3.73L103.52 3.73L103.52 3.73Q103.30 3.64 102.87 3.64L102.87 3.64ZM104.85 4.28L104.85 7.57L104.85 7.57Q105.03 7.70 105.75 7.71L105.75 7.71L105.75 7.71Q107.02 7.71 107.60 7.27L107.60 7.27L107.60 7.27Q108.19 6.84 108.19 5.92L108.19 5.92L108.19 5.92Q108.19 4.92 107.41 4.27L107.41 4.27L107.41 4.27Q106.65 3.64 105.27 3.64L105.27 3.64L105.27 3.64Q105.02 3.64 104.94 3.75L104.94 3.75L104.94 3.75Q104.86 3.84 104.85 4.28L104.85 4.28ZM119.25 3.64L119.24 3.08L126.45 3.08L126.45 3.08Q126.46 4.14 126.52 5.28L126.52 5.28L125.97 5.30L125.97 5.30Q125.96 4.66 125.90 4.25L125.90 4.25L125.90 4.25Q125.86 3.89 125.81 3.80L125.81 3.80L125.81 3.80Q125.75 3.71 125.64 3.69L125.64 3.69L125.64 3.69Q125.54 3.68 124.95 3.68L124.95 3.68L122.58 3.68L122.58 3.68Q122.03 3.68 121.88 3.77L121.88 3.77L121.88 3.77Q121.76 3.86 121.76 4.33L121.76 4.33L121.76 6.28L121.76 6.28Q121.76 6.69 121.82 6.76L121.82 6.76L121.82 6.76Q121.88 6.84 122.23 6.84L122.23 6.84L124.34 6.84L124.34 6.84Q124.70 6.84 124.78 6.73L124.78 6.73L124.78 6.73Q124.87 6.63 124.87 6.14L124.87 6.14L124.87 5.61L125.38 5.63L125.38 8.97L124.87 8.97L124.87 8.24L124.87 8.24Q124.87 7.66 124.80 7.57L124.80 7.57L124.80 7.57Q124.71 7.46 124.37 7.46L124.37 7.46L122.27 7.46L122.27 7.46Q121.93 7.46 121.85 7.54L121.85 7.54L121.85 7.54Q121.76 7.63 121.76 7.89L121.76 7.89L121.76 11.20L121.76 11.20Q121.76 11.57 121.85 11.67L121.85 11.67L121.85 11.67Q121.93 11.77 122.21 11.77L122.21 11.77L122.21 11.77Q125.13 11.75 125.65 11.69L125.65 11.69L125.65 11.69Q126.17 11.63 126.25 11.38L126.25 11.38L126.26 11.36L126.27 11.35L126.49 10.17L126.97 10.25L126.62 12.41L119.52 12.41L119.52 11.87L119.89 11.87L119.89 11.87Q120.45 11.87 120.53 11.80L120.53 11.80L120.53 11.80Q120.63 11.72 120.63 11.33L120.63 11.33L120.63 4.24L120.63 4.24Q120.63 3.82 120.48 3.73L120.48 3.73L120.48 3.73Q120.31 3.64 119.65 3.64L119.65 3.64L119.25 3.64ZM144.46 3.64L144.42 3.08L148.20 3.08L148.20 3.08Q149.52 3.08 150.38 3.19L150.38 3.19L150.38 3.19Q151.20 3.29 151.89 3.69L151.89 3.69L151.89 3.69Q152.84 4.27 153.35 5.24L153.35 5.24L153.35 5.24Q153.84 6.21 153.84 7.39L153.84 7.39L153.84 7.39Q153.84 8.05 153.70 8.65L153.70 8.65L153.70 8.65Q153.54 9.29 153.15 9.98L153.15 9.98L153.15 9.98Q152.72 10.73 152.16 11.21L152.16 11.21L152.16 11.21Q151.53 11.76 150.56 12.08L150.56 12.08L150.56 12.08Q149.56 12.41 148.29 12.41L148.29 12.41L144.67 12.41L144.66 11.87L145.03 11.87L145.03 11.87Q145.55 11.87 145.65 11.79L145.65 11.79L145.65 11.79Q145.76 11.70 145.76 11.25L145.76 11.25L145.76 4.14L145.76 4.14Q145.76 3.77 145.67 3.71L145.67 3.71L145.67 3.71Q145.56 3.64 145.04 3.64L145.04 3.64L144.46 3.64ZM146.90 4.39L146.90 11.22L146.90 11.22Q146.90 11.67 147.06 11.77L147.06 11.77L147.06 11.77Q147.22 11.87 148.09 11.87L148.09 11.87L148.09 11.87Q149.14 11.87 149.93 11.61L149.93 11.61L149.93 11.61Q150.79 11.35 151.22 10.99L151.22 10.99L151.22 10.99Q151.72 10.58 152.02 10.05L152.02 10.05L152.02 10.05Q152.33 9.52 152.46 8.96L152.46 8.96L152.46 8.96Q152.58 8.41 152.58 7.82L152.58 7.82L152.58 7.82Q152.58 7.03 152.31 6.34L152.31 6.34L152.31 6.34Q152.04 5.65 151.52 5.05L151.52 5.05L151.52 5.05Q150.99 4.46 150.08 4.09L150.08 4.09L150.08 4.09Q149.15 3.73 147.99 3.73L147.99 3.73L147.47 3.73L147.47 3.73Q147.11 3.73 147.01 3.85L147.01 3.85L147.01 3.85Q146.90 3.99 146.90 4.39L146.90 4.39ZM161.83 3.64L161.81 3.08L169.03 3.08L169.03 3.08Q169.04 4.14 169.09 5.28L169.09 5.28L168.55 5.30L168.55 5.30Q168.53 4.66 168.48 4.25L168.48 4.25L168.48 4.25Q168.44 3.89 168.38 3.80L168.38 3.80L168.38 3.80Q168.33 3.71 168.21 3.69L168.21 3.69L168.21 3.69Q168.12 3.68 167.53 3.68L167.53 3.68L165.15 3.68L165.15 3.68Q164.60 3.68 164.46 3.77L164.46 3.77L164.46 3.77Q164.34 3.86 164.34 4.33L164.34 4.33L164.34 6.28L164.34 6.28Q164.34 6.69 164.39 6.76L164.39 6.76L164.39 6.76Q164.46 6.84 164.80 6.84L164.80 6.84L166.91 6.84L166.91 6.84Q167.28 6.84 167.36 6.73L167.36 6.73L167.36 6.73Q167.44 6.63 167.45 6.14L167.45 6.14L167.45 5.61L167.96 5.63L167.96 8.97L167.45 8.97L167.45 8.24L167.45 8.24Q167.45 7.66 167.37 7.57L167.37 7.57L167.37 7.57Q167.29 7.46 166.94 7.46L166.94 7.46L164.84 7.46L164.84 7.46Q164.51 7.46 164.42 7.54L164.42 7.54L164.42 7.54Q164.34 7.63 164.34 7.89L164.34 7.89L164.34 11.20L164.34 11.20Q164.34 11.57 164.42 11.67L164.42 11.67L164.42 11.67Q164.51 11.77 164.78 11.77L164.78 11.77L164.78 11.77Q167.70 11.75 168.23 11.69L168.23 11.69L168.23 11.69Q168.75 11.63 168.83 11.38L168.83 11.38L168.83 11.36L168.84 11.35L169.07 10.17L169.54 10.25L169.20 12.41L162.09 12.41L162.09 11.87L162.46 11.87L162.46 11.87Q163.02 11.87 163.11 11.80L163.11 11.80L163.11 11.80Q163.20 11.72 163.20 11.33L163.20 11.33L163.20 4.24L163.20 4.24Q163.20 3.82 163.05 3.73L163.05 3.73L163.05 3.73Q162.88 3.64 162.22 3.64L162.22 3.64L161.83 3.64ZM177.91 3.64L177.42 3.64L177.42 3.08L180.93 3.08L180.92 3.64L180.18 3.64L180.18 3.64Q179.85 3.64 179.85 3.82L179.85 3.82L179.85 3.82Q179.85 3.98 180.04 4.48L180.04 4.48L182.64 10.94L185.58 4.18L185.58 4.18Q185.65 3.97 185.66 3.92L185.66 3.92L185.66 3.92Q185.66 3.79 185.56 3.74L185.56 3.74L185.56 3.74Q185.46 3.68 185.32 3.65L185.32 3.65L185.32 3.65Q185.23 3.64 184.97 3.64L184.97 3.64L184.52 3.64L184.50 3.08L187.33 3.08L187.30 3.64L186.90 3.64L186.90 3.64Q186.58 3.64 186.42 3.83L186.42 3.83L186.42 3.83Q186.34 3.93 185.88 4.94L185.88 4.94L185.88 4.94Q185.66 5.46 185.60 5.57L185.60 5.57L182.46 12.63L182.23 12.63L178.98 4.73L178.98 4.73Q178.66 3.93 178.51 3.79L178.51 3.79L178.51 3.79Q178.36 3.63 177.91 3.64L177.91 3.64ZM195.08 3.64L195.07 3.08L202.28 3.08L202.28 3.08Q202.30 4.14 202.35 5.28L202.35 5.28L201.80 5.30L201.80 5.30Q201.79 4.66 201.74 4.25L201.74 4.25L201.74 4.25Q201.69 3.89 201.64 3.80L201.64 3.80L201.64 3.80Q201.58 3.71 201.47 3.69L201.47 3.69L201.47 3.69Q201.37 3.68 200.79 3.68L200.79 3.68L198.41 3.68L198.41 3.68Q197.86 3.68 197.72 3.77L197.72 3.77L197.72 3.77Q197.59 3.86 197.59 4.33L197.59 4.33L197.59 6.28L197.59 6.28Q197.59 6.69 197.65 6.76L197.65 6.76L197.65 6.76Q197.72 6.84 198.06 6.84L198.06 6.84L200.17 6.84L200.17 6.84Q200.53 6.84 200.61 6.73L200.61 6.73L200.61 6.73Q200.70 6.63 200.70 6.14L200.70 6.14L200.70 5.61L201.22 5.63L201.22 8.97L200.70 8.97L200.70 8.24L200.70 8.24Q200.70 7.66 200.63 7.57L200.63 7.57L200.63 7.57Q200.55 7.46 200.20 7.46L200.20 7.46L198.10 7.46L198.10 7.46Q197.76 7.46 197.68 7.54L197.68 7.54L197.68 7.54Q197.59 7.63 197.59 7.89L197.59 7.89L197.59 11.20L197.59 11.20Q197.59 11.57 197.68 11.67L197.68 11.67L197.68 11.67Q197.76 11.77 198.04 11.77L198.04 11.77L198.04 11.77Q200.96 11.75 201.48 11.69L201.48 11.69L201.48 11.69Q202.00 11.63 202.08 11.38L202.08 11.38L202.09 11.36L202.10 11.35L202.32 10.17L202.80 10.25L202.45 12.41L195.35 12.41L195.35 11.87L195.72 11.87L195.72 11.87Q196.28 11.87 196.36 11.80L196.36 11.80L196.36 11.80Q196.46 11.72 196.46 11.33L196.46 11.33L196.46 4.24L196.46 4.24Q196.46 3.82 196.31 3.73L196.31 3.73L196.31 3.73Q196.14 3.64 195.48 3.64L195.48 3.64L195.08 3.64ZM211.17 3.64L210.68 3.64L210.69 3.08L214.28 3.08L214.28 3.64L213.64 3.64L213.64 3.64Q213.27 3.64 213.15 3.72L213.15 3.72L213.15 3.72Q213.04 3.80 213.04 4.16L213.04 4.16L213.04 11.22L213.04 11.22Q213.04 11.57 213.13 11.67L213.13 11.67L213.13 11.67Q213.21 11.77 213.51 11.77L213.51 11.77L213.51 11.77Q216.38 11.74 217.03 11.63L217.03 11.63L217.03 11.63Q217.25 11.61 217.33 11.39L217.33 11.39L217.33 11.39Q217.41 11.17 217.61 10.05L217.61 10.05L218.10 10.08L217.64 12.41L210.88 12.41L210.86 11.87L211.25 11.87L211.25 11.87Q211.76 11.87 211.83 11.80L211.83 11.80L211.83 11.80Q211.91 11.72 211.91 11.33L211.91 11.33L211.91 4.09L211.91 4.09Q211.91 3.80 211.76 3.72L211.76 3.72L211.76 3.72Q211.61 3.64 211.17 3.64L211.17 3.64ZM226.21 7.83L226.21 7.83L226.21 7.83Q226.21 6.62 226.62 5.68L226.62 5.68L226.62 5.68Q227.04 4.72 227.73 4.12L227.73 4.12L227.73 4.12Q228.42 3.51 229.28 3.19L229.28 3.19L229.28 3.19Q230.12 2.88 231.07 2.88L231.07 2.88L231.07 2.88Q232.33 2.88 233.38 3.40L233.38 3.40L233.38 3.40Q234.46 3.93 235.17 5.07L235.17 5.07L235.17 5.07Q235.87 6.17 235.87 7.75L235.87 7.75L235.87 7.75Q235.87 8.70 235.57 9.54L235.57 9.54L235.57 9.54Q235.26 10.38 234.65 11.10L234.65 11.10L234.65 11.10Q234.05 11.81 233.11 12.22L233.11 12.22L233.11 12.22Q232.15 12.63 230.96 12.64L230.96 12.64L230.96 12.64Q229.82 12.64 228.89 12.23L228.89 12.23L228.89 12.23Q227.95 11.83 227.39 11.14L227.39 11.14L227.39 11.14Q226.82 10.45 226.52 9.60L226.52 9.60L226.52 9.60Q226.21 8.72 226.21 7.83ZM227.47 7.38L227.47 7.38L227.47 7.38Q227.47 8.52 227.90 9.60L227.90 9.60L227.90 9.60Q228.31 10.64 229.24 11.33L229.24 11.33L229.24 11.33Q230.15 12.03 231.33 12.04L231.33 12.04L231.33 12.04Q232.71 12.04 233.65 11.01L233.65 11.01L233.65 11.01Q234.60 9.97 234.60 8.10L234.60 8.10L234.60 8.10Q234.60 5.99 233.43 4.72L233.43 4.72L233.43 4.72Q232.29 3.46 230.77 3.45L230.77 3.45L230.77 3.45Q230.25 3.45 229.71 3.65L229.71 3.65L229.71 3.65Q229.17 3.85 228.66 4.25L228.66 4.25L228.66 4.25Q228.12 4.68 227.79 5.48L227.79 5.48L227.79 5.48Q227.47 6.27 227.47 7.38ZM247.71 12.41L243.99 12.41L243.99 11.87L244.43 11.87L244.43 11.87Q244.80 11.87 244.86 11.81L244.86 11.81L244.86 11.81Q244.92 11.74 244.93 11.46L244.93 11.46L244.93 4.14L244.93 4.14Q244.93 3.81 244.85 3.72L244.85 3.72L244.85 3.72Q244.76 3.64 244.40 3.64L244.40 3.64L244.03 3.64L244.04 3.08L246.93 3.08L246.93 3.08Q248.08 3.08 248.73 3.19L248.73 3.19L248.73 3.19Q249.33 3.28 249.80 3.68L249.80 3.68L249.80 3.68Q250.99 4.64 250.99 6.19L250.99 6.19L250.99 6.19Q250.99 7.23 250.22 7.98L250.22 7.98L250.22 7.98Q249.44 8.74 248.04 8.73L248.04 8.73L248.04 8.73Q247.86 8.73 247.45 8.70L247.45 8.70L247.45 8.70Q247.34 8.69 246.91 8.62L246.91 8.62L246.91 8.62Q246.58 8.55 246.48 8.54L246.48 8.54L246.48 8.54Q246.19 8.47 246.18 8.46L246.18 8.46L246.06 8.44L246.06 11.46L246.06 11.46Q246.06 11.74 246.19 11.81L246.19 11.81L246.19 11.81Q246.30 11.87 247.02 11.87L247.02 11.87L247.71 11.87L247.71 12.41ZM246.06 4.28L246.06 8.02L246.06 8.02Q246.41 8.29 247.38 8.29L247.38 8.29L247.38 8.29Q248.51 8.29 249.09 7.75L249.09 7.75L249.09 7.75Q249.68 7.21 249.68 6.16L249.68 6.16L249.68 6.16Q249.68 4.98 248.77 4.31L248.77 4.31L248.77 4.31Q247.87 3.64 246.48 3.64L246.48 3.64L246.48 3.64Q246.23 3.64 246.15 3.75L246.15 3.75L246.15 3.75Q246.07 3.84 246.06 4.28L246.06 4.28ZM262.13 12.41L259.11 12.41L259.11 11.87L259.25 11.87L259.25 11.87Q259.83 11.87 259.95 11.77L259.95 11.77L259.95 11.77Q260.07 11.68 260.09 11.21L260.09 11.21L260.22 4.38L260.22 4.38Q260.22 4.35 260.22 4.28L260.22 4.28L260.22 4.28Q260.23 4.21 260.23 4.17L260.23 4.17L260.23 4.01L260.23 4.01Q260.23 3.76 260.16 3.71L260.16 3.71L260.16 3.71Q260.06 3.64 259.83 3.64L259.83 3.64L259.12 3.64L259.11 3.08L261.22 3.08L264.41 10.55L267.55 3.08L269.79 3.08L269.79 3.64L269.32 3.64L269.32 3.64Q268.86 3.64 268.74 3.71L268.74 3.71L268.74 3.71Q268.58 3.79 268.58 4.08L268.58 4.08L268.58 11.22L268.58 11.22Q268.58 11.68 268.70 11.77L268.70 11.77L268.70 11.77Q268.81 11.87 269.44 11.87L269.44 11.87L269.72 11.87L269.73 12.41L266.33 12.41L266.31 11.87L266.59 11.87L266.59 11.87Q267.21 11.87 267.33 11.77L267.33 11.77L267.33 11.77Q267.45 11.66 267.45 11.25L267.45 11.25L267.45 4.83L265.30 9.91L264.44 12.02L264.44 12.02Q264.30 12.37 264.26 12.44L264.26 12.44L264.26 12.44Q264.22 12.51 264.15 12.51L264.15 12.51L264.15 12.51Q264.05 12.51 263.60 11.52L263.60 11.52L260.79 5.01L260.73 11.39L260.73 11.39Q260.73 11.74 260.93 11.80L260.93 11.80L260.93 11.80Q261.17 11.87 262.13 11.87L262.13 11.87L262.13 12.41ZM277.47 3.64L277.46 3.08L284.67 3.08L284.67 3.08Q284.68 4.14 284.74 5.28L284.74 5.28L284.19 5.30L284.19 5.30Q284.18 4.66 284.12 4.25L284.12 4.25L284.12 4.25Q284.08 3.89 284.03 3.80L284.03 3.80L284.03 3.80Q283.97 3.71 283.86 3.69L283.86 3.69L283.86 3.69Q283.76 3.68 283.17 3.68L283.17 3.68L280.79 3.68L280.79 3.68Q280.25 3.68 280.10 3.77L280.10 3.77L280.10 3.77Q279.98 3.86 279.98 4.33L279.98 4.33L279.98 6.28L279.98 6.28Q279.98 6.69 280.03 6.76L280.03 6.76L280.03 6.76Q280.10 6.84 280.44 6.84L280.44 6.84L282.56 6.84L282.56 6.84Q282.92 6.84 283.00 6.73L283.00 6.73L283.00 6.73Q283.08 6.63 283.09 6.14L283.09 6.14L283.09 5.61L283.60 5.63L283.60 8.97L283.09 8.97L283.09 8.24L283.09 8.24Q283.09 7.66 283.01 7.57L283.01 7.57L283.01 7.57Q282.93 7.46 282.58 7.46L282.58 7.46L280.49 7.46L280.49 7.46Q280.15 7.46 280.06 7.54L280.06 7.54L280.06 7.54Q279.98 7.63 279.98 7.89L279.98 7.89L279.98 11.20L279.98 11.20Q279.98 11.57 280.06 11.67L280.06 11.67L280.06 11.67Q280.15 11.77 280.42 11.77L280.42 11.77L280.42 11.77Q283.34 11.75 283.87 11.69L283.87 11.69L283.87 11.69Q284.39 11.63 284.47 11.38L284.47 11.38L284.48 11.36L284.48 11.35L284.71 10.17L285.19 10.25L284.84 12.41L277.74 12.41L277.74 11.87L278.11 11.87L278.11 11.87Q278.67 11.87 278.75 11.80L278.75 11.80L278.75 11.80Q278.84 11.72 278.84 11.33L278.84 11.33L278.84 4.24L278.84 4.24Q278.84 3.82 278.69 3.73L278.69 3.73L278.69 3.73Q278.52 3.64 277.87 3.64L277.87 3.64L277.47 3.64ZM293.08 3.64L293.06 3.08L295.24 3.08L300.97 10.48L300.97 4.14L300.97 4.14Q300.97 3.81 300.82 3.72L300.82 3.72L300.82 3.72Q300.67 3.64 300.21 3.64L300.21 3.64L299.71 3.64L299.74 3.08L302.72 3.08L302.72 3.64L302.40 3.64L302.40 3.64Q301.94 3.64 301.79 3.75L301.79 3.75L301.79 3.75Q301.64 3.86 301.64 4.25L301.64 4.25L301.64 12.32L301.64 12.47L301.64 12.47Q301.64 12.52 301.62 12.57L301.62 12.57L301.62 12.57Q301.61 12.61 301.57 12.64L301.57 12.64L301.57 12.64Q301.56 12.65 301.51 12.65L301.51 12.65L301.31 12.65L301.25 12.65L301.23 12.65L301.20 12.64L301.20 12.64Q301.17 12.64 301.16 12.63L301.16 12.63L301.16 12.63Q301.14 12.61 301.14 12.60L301.14 12.60L301.14 12.60Q301.14 12.58 301.13 12.57L301.13 12.57L301.13 12.57Q301.10 12.54 301.08 12.50L301.08 12.50L301.08 12.50Q301.06 12.48 301.04 12.45L301.04 12.45L301.04 12.45Q301.02 12.41 301.01 12.40L301.01 12.40L294.90 4.56L294.97 11.22L294.97 11.22Q294.97 11.67 295.13 11.77L295.13 11.77L295.13 11.77Q295.29 11.87 296.00 11.87L296.00 11.87L296.24 11.87L296.24 12.41L293.30 12.41L293.30 11.87L293.73 11.87L293.73 11.87Q294.10 11.87 294.21 11.76L294.21 11.76L294.21 11.76Q294.31 11.66 294.31 11.25L294.31 11.25L294.31 3.80L294.17 3.64L293.08 3.64ZM310.74 5.35L310.24 5.33L310.24 5.33Q310.37 4.17 310.45 3.08L310.45 3.08L318.53 3.08L318.53 3.08Q318.45 4.13 318.42 4.53L318.42 4.53L318.42 4.53Q318.38 5.26 318.36 5.32L318.36 5.32L317.86 5.30L317.86 5.30Q317.94 4.34 317.94 4.16L317.94 4.16L317.94 4.16Q317.94 3.88 317.80 3.79L317.80 3.79L317.80 3.79Q317.63 3.69 317.22 3.69L317.22 3.69L315.62 3.69L315.62 3.69Q315.11 3.69 314.99 3.79L314.99 3.79L314.99 3.79Q314.89 3.87 314.88 4.36L314.88 4.36L314.88 11.22L314.88 11.22Q314.88 11.66 315.03 11.76L315.03 11.76L315.03 11.76Q315.18 11.87 315.70 11.87L315.70 11.87L316.26 11.87L316.27 12.41L312.58 12.40L312.58 11.87L312.80 11.87L312.80 11.87Q313.47 11.87 313.61 11.79L313.61 11.79L313.61 11.79Q313.76 11.70 313.76 11.28L313.76 11.28L313.76 4.48L313.76 4.48Q313.76 3.92 313.66 3.80L313.66 3.80L313.66 3.80Q313.56 3.69 313.13 3.69L313.13 3.69L311.66 3.69L311.66 3.69Q311.48 3.69 311.41 3.71L311.41 3.71L311.41 3.71Q311.34 3.72 311.23 3.72L311.23 3.72L311.23 3.72Q311.21 3.72 311.09 3.79L311.09 3.79L311.09 3.79Q311.01 3.84 310.98 3.86L310.98 3.86L310.98 3.86Q310.95 3.88 310.91 3.99L310.91 3.99L310.91 3.99Q310.88 4.05 310.86 4.14L310.86 4.14L310.86 4.14Q310.83 4.21 310.81 4.36L310.81 4.36L310.81 4.36Q310.78 4.59 310.78 4.61L310.78 4.61L310.78 4.61Q310.78 4.80 310.77 4.95L310.77 4.95L310.77 4.95Q310.77 5.02 310.76 5.15L310.76 5.15L310.76 5.15Q310.75 5.29 310.74 5.35L310.74 5.35Z"></path></g></svg>