<svg data-v-fde0c5aa="" xmlns="http://www.w3.org/2000/svg" viewBox="0 0 300 300" class="iconLeft"><!----><defs data-v-fde0c5aa=""><!----></defs><rect data-v-fde0c5aa="" fill="transparent" x="0" y="0" width="300px" height="300px" class="logo-background-square"></rect><defs data-v-fde0c5aa=""><!----></defs><g data-v-fde0c5aa="" id="6d6194f6-33c0-4919-8e8b-a25afc17aab8" fill="#000000" transform="matrix(1.4517689961046214,0,0,1.4517689961046214,87.39918095873097,138.61087253015248)"><path d="M9.88 10.82L9.67 13.58L0.63 13.58L0.63 13.05L0.63 13.05Q1.12 13.03 1.42 12.96L1.42 12.96L1.42 12.96Q1.72 12.89 1.89 12.73L1.89 12.73L1.89 12.73Q2.06 12.56 2.11 12.25L2.11 12.25L2.11 12.25Q2.17 11.94 2.17 11.45L2.17 11.45L2.17 4.93L2.17 4.93Q2.17 4.44 2.12 4.14L2.12 4.14L2.12 4.14Q2.07 3.84 1.93 3.66L1.93 3.66L1.93 3.66Q1.78 3.49 1.50 3.42L1.50 3.42L1.50 3.42Q1.22 3.36 0.77 3.33L0.77 3.33L0.77 2.80L5.03 2.80L5.03 3.33L5.03 3.33Q4.58 3.35 4.30 3.42L4.30 3.42L4.30 3.42Q4.03 3.49 3.89 3.67L3.89 3.67L3.89 3.67Q3.74 3.85 3.69 4.17L3.69 4.17L3.69 4.17Q3.64 4.49 3.64 5.03L3.64 5.03L3.64 11.06L3.64 11.06Q3.64 11.65 3.76 12.02L3.76 12.02L3.76 12.02Q3.88 12.39 4.17 12.59L4.17 12.59L4.17 12.59Q4.45 12.80 4.93 12.87L4.93 12.87L4.93 12.87Q5.40 12.95 6.13 12.95L6.13 12.95L6.13 12.95Q6.93 12.95 7.48 12.86L7.48 12.86L7.48 12.86Q8.02 12.77 8.39 12.54L8.39 12.54L8.39 12.54Q8.76 12.31 8.98 11.89L8.98 11.89L8.98 11.89Q9.20 11.48 9.35 10.82L9.35 10.82L9.88 10.82ZM16.66 9.77L16.66 8.40L16.66 8.40Q16.66 7.83 16.63 7.50L16.63 7.50L16.63 7.50Q16.60 7.17 16.48 6.99L16.48 6.99L16.48 6.99Q16.37 6.82 16.14 6.75L16.14 6.75L16.14 6.75Q15.90 6.69 15.50 6.65L15.50 6.65L15.50 6.16L18.03 6.16L18.03 10.46L18.03 10.46Q18.03 11.26 18.05 11.76L18.05 11.76L18.05 11.76Q18.07 12.26 18.12 12.52L18.12 12.52L18.12 12.52Q18.14 12.70 18.21 12.80L18.21 12.80L18.21 12.80Q18.27 12.91 18.40 12.97L18.40 12.97L18.40 12.97Q18.52 13.03 18.73 13.05L18.73 13.05L18.73 13.05Q18.93 13.08 19.25 13.08L19.25 13.08L19.25 13.57L16.94 13.73L16.79 12.05L16.73 12.05L16.73 12.05Q16.20 12.92 15.51 13.32L15.51 13.32L15.51 13.32Q14.81 13.72 14.06 13.72L14.06 13.72L14.06 13.72Q13.47 13.72 12.92 13.50L12.92 13.50L12.92 13.50Q12.36 13.27 12.08 12.89L12.08 12.89L12.08 12.89Q11.84 12.59 11.74 12.04L11.74 12.04L11.74 12.04Q11.63 11.49 11.63 10.63L11.63 10.63L11.63 8.40L11.63 8.40Q11.63 7.83 11.61 7.50L11.61 7.50L11.61 7.50Q11.58 7.17 11.46 6.99L11.46 6.99L11.46 6.99Q11.34 6.82 11.11 6.75L11.11 6.75L11.11 6.75Q10.88 6.69 10.47 6.65L10.47 6.65L10.47 6.16L13.01 6.16L13.01 9.98L13.01 9.98Q13.01 11.51 13.36 12.19L13.36 12.19L13.36 12.19Q13.72 12.88 14.50 12.88L14.50 12.88L14.50 12.88Q15.74 12.88 16.42 11.27L16.42 11.27L16.42 11.27Q16.49 11.10 16.53 10.96L16.53 10.96L16.53 10.96Q16.58 10.82 16.60 10.65L16.60 10.65L16.60 10.65Q16.63 10.49 16.65 10.28L16.65 10.28L16.65 10.28Q16.66 10.07 16.66 9.77L16.66 9.77ZM26.22 12.01L26.64 12.42L26.64 12.42Q26.14 13.03 25.34 13.38L25.34 13.38L25.34 13.38Q24.54 13.72 23.62 13.72L23.62 13.72L23.62 13.72Q22.88 13.72 22.25 13.45L22.25 13.45L22.25 13.45Q21.63 13.17 21.18 12.68L21.18 12.68L21.18 12.68Q20.73 12.18 20.49 11.48L20.49 11.48L20.49 11.48Q20.24 10.78 20.24 9.93L20.24 9.93L20.24 9.93Q20.24 9.03 20.52 8.31L20.52 8.31L20.52 8.31Q20.80 7.59 21.32 7.08L21.32 7.08L21.32 7.08Q21.83 6.57 22.55 6.29L22.55 6.29L22.55 6.29Q23.27 6.02 24.14 6.02L24.14 6.02L24.14 6.02Q24.68 6.02 25.13 6.11L25.13 6.11L25.13 6.11Q25.58 6.20 25.91 6.36L25.91 6.36L25.91 6.36Q26.24 6.52 26.42 6.75L26.42 6.75L26.42 6.75Q26.60 6.99 26.60 7.25L26.60 7.25L26.60 7.25Q26.60 7.53 26.42 7.69L26.42 7.69L26.42 7.69Q26.24 7.84 25.91 7.84L25.91 7.84L25.91 7.84Q25.66 7.84 25.49 7.74L25.49 7.74L25.49 7.74Q25.33 7.63 25.06 7.27L25.06 7.27L25.06 7.27Q24.78 6.94 24.52 6.81L24.52 6.81L24.52 6.81Q24.26 6.68 23.86 6.68L23.86 6.68L23.86 6.68Q22.86 6.68 22.35 7.45L22.35 7.45L22.35 7.45Q21.84 8.22 21.84 9.72L21.84 9.72L21.84 9.72Q21.84 11.33 22.41 12.16L22.41 12.16L22.41 12.16Q22.97 12.99 24.07 12.99L24.07 12.99L24.07 12.99Q24.65 12.99 25.17 12.76L25.17 12.76L25.17 12.76Q25.69 12.53 26.22 12.01L26.22 12.01ZM31.95 10.54L31.95 9.44L31.95 9.44Q31.15 9.74 30.60 10.04L30.60 10.04L30.60 10.04Q30.04 10.33 29.71 10.63L29.71 10.63L29.71 10.63Q29.37 10.92 29.23 11.21L29.23 11.21L29.23 11.21Q29.08 11.51 29.08 11.82L29.08 11.82L29.08 11.82Q29.08 12.28 29.39 12.57L29.39 12.57L29.39 12.57Q29.69 12.87 30.20 12.87L30.20 12.87L30.20 12.87Q30.56 12.87 30.88 12.68L30.88 12.68L30.88 12.68Q31.19 12.50 31.43 12.19L31.43 12.19L31.43 12.19Q31.67 11.87 31.81 11.45L31.81 11.45L31.81 11.45Q31.95 11.02 31.95 10.54L31.95 10.54ZM29.93 9.72L31.95 8.83L31.95 8.26L31.95 8.26Q31.95 6.55 30.49 6.55L30.49 6.55L30.49 6.55Q30.25 6.55 30.09 6.59L30.09 6.59L30.09 6.59Q29.92 6.64 29.81 6.73L29.81 6.73L29.81 6.73Q29.69 6.83 29.60 7.01L29.60 7.01L29.60 7.01Q29.51 7.20 29.43 7.46L29.43 7.46L29.43 7.46Q29.27 7.87 29.13 8.00L29.13 8.00L29.13 8.00Q28.98 8.13 28.70 8.13L28.70 8.13L28.70 8.13Q28 8.13 28 7.43L28 7.43L28 7.43Q28 6.76 28.71 6.39L28.71 6.39L28.71 6.39Q29.43 6.02 30.74 6.02L30.74 6.02L30.74 6.02Q32.14 6.02 32.73 6.52L32.73 6.52L32.73 6.52Q33.32 7.01 33.32 8.20L33.32 8.20L33.32 11.34L33.32 11.34Q33.32 12.94 33.95 12.94L33.95 12.94L33.95 12.94Q34.15 12.94 34.33 12.89L34.33 12.89L34.33 12.89Q34.51 12.84 34.64 12.63L34.64 12.63L34.83 12.96L34.83 12.96Q34.66 13.29 34.22 13.50L34.22 13.50L34.22 13.50Q33.77 13.72 33.28 13.72L33.28 13.72L33.28 13.72Q32.66 13.72 32.36 13.33L32.36 13.33L32.36 13.33Q32.06 12.94 32.06 12.22L32.06 12.22L31.99 12.22L31.99 12.22Q31.63 12.91 30.98 13.31L30.98 13.31L30.98 13.31Q30.34 13.71 29.55 13.71L29.55 13.71L29.55 13.71Q28.67 13.71 28.17 13.26L28.17 13.26L28.17 13.26Q27.66 12.81 27.66 12.05L27.66 12.05L27.66 12.05Q27.66 11.72 27.78 11.41L27.78 11.41L27.78 11.41Q27.90 11.10 28.17 10.82L28.17 10.82L28.17 10.82Q28.43 10.54 28.87 10.27L28.87 10.27L28.87 10.27Q29.30 10.00 29.93 9.72L29.93 9.72ZM36.30 13.09L36.02 13.58L35.71 13.58L35.71 11.17L36.06 11.17L36.06 11.17Q36.61 13.15 38.05 13.15L38.05 13.15L38.05 13.15Q38.61 13.15 38.94 12.87L38.94 12.87L38.94 12.87Q39.27 12.60 39.27 12.04L39.27 12.04L39.27 12.04Q39.27 11.83 39.21 11.68L39.21 11.68L39.21 11.68Q39.14 11.54 38.97 11.38L38.97 11.38L38.97 11.38Q38.79 11.21 38.48 11.00L38.48 11.00L38.48 11.00Q38.16 10.79 37.65 10.47L37.65 10.47L37.65 10.47Q37.17 10.18 36.82 9.93L36.82 9.93L36.82 9.93Q36.47 9.67 36.23 9.41L36.23 9.41L36.23 9.41Q35.99 9.16 35.88 8.86L35.88 8.86L35.88 8.86Q35.76 8.57 35.76 8.18L35.76 8.18L35.76 8.18Q35.76 7.70 35.92 7.30L35.92 7.30L35.92 7.30Q36.08 6.90 36.36 6.62L36.36 6.62L36.36 6.62Q36.64 6.34 37.02 6.18L37.02 6.18L37.02 6.18Q37.39 6.02 37.84 6.02L37.84 6.02L37.84 6.02Q38.22 6.02 38.63 6.14L38.63 6.14L38.63 6.14Q39.03 6.26 39.34 6.45L39.34 6.45L39.62 6.16L39.89 6.16L39.89 8.18L39.52 8.18L39.52 8.18Q39.21 7.32 38.85 6.96L38.85 6.96L38.85 6.96Q38.49 6.59 37.95 6.59L37.95 6.59L37.95 6.59Q37.48 6.59 37.19 6.85L37.19 6.85L37.19 6.85Q36.90 7.10 36.90 7.55L36.90 7.55L36.90 7.55Q36.90 7.78 36.98 7.96L36.98 7.96L36.98 7.96Q37.06 8.13 37.23 8.30L37.23 8.30L37.23 8.30Q37.39 8.47 37.65 8.64L37.65 8.64L37.65 8.64Q37.91 8.82 38.28 9.04L38.28 9.04L38.28 9.04Q38.88 9.42 39.30 9.72L39.30 9.72L39.30 9.72Q39.73 10.01 40.00 10.30L40.00 10.30L40.00 10.30Q40.26 10.58 40.39 10.89L40.39 10.89L40.39 10.89Q40.52 11.20 40.52 11.59L40.52 11.59L40.52 11.59Q40.52 12.59 39.87 13.15L39.87 13.15L39.87 13.15Q39.23 13.72 38.18 13.72L38.18 13.72L38.18 13.72Q37.09 13.72 36.30 13.09L36.30 13.09ZM46.63 13.58L41.59 13.58L41.59 13.05L41.59 13.05Q42.14 13.03 42.47 12.96L42.47 12.96L42.47 12.96Q42.80 12.89 42.97 12.73L42.97 12.73L42.97 12.73Q43.15 12.56 43.21 12.25L43.21 12.25L43.21 12.25Q43.27 11.94 43.27 11.45L43.27 11.45L43.27 4.93L43.27 4.93Q43.27 4.44 43.22 4.14L43.22 4.14L43.22 4.14Q43.18 3.84 43.03 3.66L43.03 3.66L43.03 3.66Q42.88 3.49 42.60 3.42L42.60 3.42L42.60 3.42Q42.32 3.36 41.87 3.33L41.87 3.33L41.87 2.80L46.06 2.80L46.06 2.80Q47.95 2.80 49 3.47L49 3.47L49 3.47Q50.05 4.14 50.05 5.36L50.05 5.36L50.05 5.36Q50.05 6.29 49.47 6.87L49.47 6.87L49.47 6.87Q48.89 7.46 47.63 7.84L47.63 7.84L47.63 7.90L47.63 7.90Q48.06 7.94 48.38 7.99L48.38 7.99L48.38 7.99Q48.71 8.05 48.96 8.13L48.96 8.13L48.96 8.13Q49.21 8.20 49.43 8.32L49.43 8.32L49.43 8.32Q49.64 8.43 49.85 8.57L49.85 8.57L49.85 8.57Q51.10 9.45 51.10 10.78L51.10 10.78L51.10 10.78Q51.10 11.52 50.69 12.16L50.69 12.16L50.69 12.16Q50.27 12.80 49.53 13.16L49.53 13.16L49.53 13.16Q49.29 13.29 49.04 13.36L49.04 13.36L49.04 13.36Q48.79 13.44 48.45 13.49L48.45 13.49L48.45 13.49Q48.12 13.54 47.68 13.56L47.68 13.56L47.68 13.56Q47.24 13.58 46.63 13.58L46.63 13.58ZM46.68 12.98L46.68 12.98L46.68 12.98Q49.21 12.98 49.21 10.81L49.21 10.81L49.21 10.81Q49.21 9.23 47.91 8.60L47.91 8.60L47.91 8.60Q47.68 8.50 47.47 8.43L47.47 8.43L47.47 8.43Q47.26 8.36 46.98 8.32L46.98 8.32L46.98 8.32Q46.70 8.29 46.32 8.27L46.32 8.27L46.32 8.27Q45.93 8.26 45.37 8.26L45.37 8.26L44.74 8.26L44.74 11.38L44.74 11.38Q44.74 12.24 45.19 12.61L45.19 12.61L45.19 12.61Q45.64 12.98 46.68 12.98ZM44.74 7.56L45.53 7.56L45.53 7.56Q45.96 7.56 46.26 7.55L46.26 7.55L46.26 7.55Q46.55 7.53 46.76 7.50L46.76 7.50L46.76 7.50Q46.97 7.46 47.13 7.40L47.13 7.40L47.13 7.40Q47.29 7.34 47.46 7.22L47.46 7.22L47.46 7.22Q47.91 6.94 48.10 6.55L48.10 6.55L48.10 6.55Q48.29 6.16 48.29 5.53L48.29 5.53L48.29 5.53Q48.29 4.42 47.75 3.94L47.75 3.94L47.75 3.94Q47.21 3.46 46.06 3.46L46.06 3.46L44.98 3.46L44.98 3.46Q44.74 3.46 44.74 3.70L44.74 3.70L44.74 7.56ZM58.67 11.89L59.11 12.28L59.11 12.28Q57.92 13.72 56.15 13.72L56.15 13.72L56.15 13.72Q55.33 13.72 54.66 13.45L54.66 13.45L54.66 13.45Q53.98 13.17 53.50 12.68L53.50 12.68L53.50 12.68Q53.02 12.18 52.75 11.49L52.75 11.49L52.75 11.49Q52.49 10.79 52.49 9.95L52.49 9.95L52.49 9.95Q52.49 9.10 52.77 8.37L52.77 8.37L52.77 8.37Q53.05 7.64 53.56 7.13L53.56 7.13L53.56 7.13Q54.07 6.61 54.77 6.31L54.77 6.31L54.77 6.31Q55.48 6.02 56.32 6.02L56.32 6.02L56.32 6.02Q57.68 6.02 58.42 6.75L58.42 6.75L58.42 6.75Q59.16 7.49 59.16 8.86L59.16 8.86L59.16 8.86Q59.16 9.06 59.09 9.10L59.09 9.10L59.09 9.10Q59.01 9.14 58.73 9.14L58.73 9.14L54.12 9.14L54.12 9.14Q54.10 9.25 54.08 9.41L54.08 9.41L54.08 9.41Q54.07 9.58 54.07 9.77L54.07 9.77L54.07 9.77Q54.07 10.50 54.24 11.10L54.24 11.10L54.24 11.10Q54.42 11.69 54.75 12.11L54.75 12.11L54.75 12.11Q55.08 12.53 55.53 12.76L55.53 12.76L55.53 12.76Q55.99 12.99 56.55 12.99L56.55 12.99L56.55 12.99Q57.13 12.99 57.64 12.73L57.64 12.73L57.64 12.73Q58.14 12.47 58.67 11.89L58.67 11.89ZM54.22 8.50L56.80 8.50L56.80 8.50Q57.08 8.50 57.25 8.48L57.25 8.48L57.25 8.48Q57.41 8.47 57.50 8.43L57.50 8.43L57.50 8.43Q57.58 8.39 57.61 8.31L57.61 8.31L57.61 8.31Q57.64 8.23 57.64 8.11L57.64 8.11L57.64 8.11Q57.64 7.46 57.22 7.08L57.22 7.08L57.22 7.08Q56.81 6.69 56.10 6.69L56.10 6.69L56.10 6.69Q54.59 6.69 54.22 8.50L54.22 8.50ZM66.49 12.01L66.91 12.42L66.91 12.42Q66.40 13.03 65.60 13.38L65.60 13.38L65.60 13.38Q64.81 13.72 63.88 13.72L63.88 13.72L63.88 13.72Q63.14 13.72 62.52 13.45L62.52 13.45L62.52 13.45Q61.89 13.17 61.45 12.68L61.45 12.68L61.45 12.68Q61.00 12.18 60.75 11.48L60.75 11.48L60.75 11.48Q60.51 10.78 60.51 9.93L60.51 9.93L60.51 9.93Q60.51 9.03 60.79 8.31L60.79 8.31L60.79 8.31Q61.07 7.59 61.58 7.08L61.58 7.08L61.58 7.08Q62.09 6.57 62.81 6.29L62.81 6.29L62.81 6.29Q63.53 6.02 64.40 6.02L64.40 6.02L64.40 6.02Q64.95 6.02 65.39 6.11L65.39 6.11L65.39 6.11Q65.84 6.20 66.17 6.36L66.17 6.36L66.17 6.36Q66.50 6.52 66.68 6.75L66.68 6.75L66.68 6.75Q66.86 6.99 66.86 7.25L66.86 7.25L66.86 7.25Q66.86 7.53 66.68 7.69L66.68 7.69L66.68 7.69Q66.50 7.84 66.18 7.84L66.18 7.84L66.18 7.84Q65.93 7.84 65.76 7.74L65.76 7.74L65.76 7.74Q65.59 7.63 65.32 7.27L65.32 7.27L65.32 7.27Q65.04 6.94 64.78 6.81L64.78 6.81L64.78 6.81Q64.53 6.68 64.12 6.68L64.12 6.68L64.12 6.68Q63.13 6.68 62.61 7.45L62.61 7.45L62.61 7.45Q62.10 8.22 62.10 9.72L62.10 9.72L62.10 9.72Q62.10 11.33 62.67 12.16L62.67 12.16L62.67 12.16Q63.24 12.99 64.33 12.99L64.33 12.99L64.33 12.99Q64.92 12.99 65.44 12.76L65.44 12.76L65.44 12.76Q65.95 12.53 66.49 12.01L66.49 12.01ZM72.20 13.58L72.20 13.09L72.20 13.09Q72.66 13.09 72.83 13.05L72.83 13.05L72.83 13.05Q73.01 13.01 73.01 12.94L73.01 12.94L73.01 12.94Q73.00 12.82 72.79 12.53L72.79 12.53L72.79 12.53Q72.58 12.24 72.24 11.83L72.24 11.83L70.76 10.04L70.24 10.53L70.24 11.35L70.24 11.35Q70.24 11.90 70.29 12.23L70.29 12.23L70.29 12.23Q70.34 12.56 70.47 12.75L70.47 12.75L70.47 12.75Q70.60 12.94 70.86 13.01L70.86 13.01L70.86 13.01Q71.12 13.08 71.54 13.09L71.54 13.09L71.54 13.58L67.56 13.58L67.56 13.09L67.56 13.09Q67.98 13.08 68.24 13.01L68.24 13.01L68.24 13.01Q68.50 12.94 68.65 12.75L68.65 12.75L68.65 12.75Q68.80 12.57 68.85 12.26L68.85 12.26L68.85 12.26Q68.91 11.96 68.91 11.45L68.91 11.45L68.91 5.59L68.91 5.59Q68.91 4.52 68.89 3.98L68.89 3.98L68.89 3.98Q68.87 3.43 68.74 3.23L68.74 3.23L68.74 3.23Q68.61 3.04 68.32 3.00L68.32 3.00L68.32 3.00Q68.03 2.97 67.54 2.97L67.54 2.97L67.54 2.49L70.24 1.96L70.24 9.65L71.54 8.37L71.54 8.37Q72.17 7.74 72.48 7.44L72.48 7.44L72.48 7.44Q72.79 7.14 72.79 6.99L72.79 6.99L72.79 6.99Q72.79 6.83 72.49 6.74L72.49 6.74L72.49 6.74Q72.20 6.65 71.65 6.65L71.65 6.65L71.65 6.16L75.29 6.16L75.29 6.65L75.29 6.65Q75.03 6.65 74.83 6.68L74.83 6.68L74.83 6.68Q74.63 6.71 74.46 6.79L74.46 6.79L74.46 6.79Q74.28 6.87 74.09 7.02L74.09 7.02L74.09 7.02Q73.89 7.17 73.64 7.39L73.64 7.39L71.62 9.18L74.40 12.32L74.40 12.32Q74.59 12.56 74.75 12.71L74.75 12.71L74.75 12.71Q74.91 12.85 75.07 12.94L75.07 12.94L75.07 12.94Q75.24 13.02 75.42 13.05L75.42 13.05L75.42 13.05Q75.61 13.09 75.88 13.09L75.88 13.09L75.88 13.58L72.20 13.58ZM82.31 11.89L82.74 12.28L82.74 12.28Q81.55 13.72 79.79 13.72L79.79 13.72L79.79 13.72Q78.96 13.72 78.29 13.45L78.29 13.45L78.29 13.45Q77.62 13.17 77.13 12.68L77.13 12.68L77.13 12.68Q76.65 12.18 76.38 11.49L76.38 11.49L76.38 11.49Q76.12 10.79 76.12 9.95L76.12 9.95L76.12 9.95Q76.12 9.10 76.40 8.37L76.40 8.37L76.40 8.37Q76.68 7.64 77.19 7.13L77.19 7.13L77.19 7.13Q77.70 6.61 78.41 6.31L78.41 6.31L78.41 6.31Q79.11 6.02 79.95 6.02L79.95 6.02L79.95 6.02Q81.31 6.02 82.05 6.75L82.05 6.75L82.05 6.75Q82.80 7.49 82.80 8.86L82.80 8.86L82.80 8.86Q82.80 9.06 82.72 9.10L82.72 9.10L82.72 9.10Q82.64 9.14 82.36 9.14L82.36 9.14L77.76 9.14L77.76 9.14Q77.73 9.25 77.71 9.41L77.71 9.41L77.71 9.41Q77.70 9.58 77.70 9.77L77.70 9.77L77.70 9.77Q77.70 10.50 77.87 11.10L77.87 11.10L77.87 11.10Q78.05 11.69 78.38 12.11L78.38 12.11L78.38 12.11Q78.71 12.53 79.16 12.76L79.16 12.76L79.16 12.76Q79.62 12.99 80.18 12.99L80.18 12.99L80.18 12.99Q80.77 12.99 81.27 12.73L81.27 12.73L81.27 12.73Q81.77 12.47 82.31 11.89L82.31 11.89ZM77.85 8.50L80.43 8.50L80.43 8.50Q80.71 8.50 80.88 8.48L80.88 8.48L80.88 8.48Q81.05 8.47 81.13 8.43L81.13 8.43L81.13 8.43Q81.21 8.39 81.24 8.31L81.24 8.31L81.24 8.31Q81.27 8.23 81.27 8.11L81.27 8.11L81.27 8.11Q81.27 7.46 80.86 7.08L80.86 7.08L80.86 7.08Q80.44 6.69 79.73 6.69L79.73 6.69L79.73 6.69Q78.22 6.69 77.85 8.50L77.85 8.50ZM86.56 10.88L86.56 11.35L86.56 11.35Q86.56 11.93 86.59 12.26L86.59 12.26L86.59 12.26Q86.62 12.60 86.74 12.78L86.74 12.78L86.74 12.78Q86.86 12.95 87.08 13.01L87.08 13.01L87.08 13.01Q87.30 13.06 87.71 13.09L87.71 13.09L87.71 13.58L83.99 13.58L83.99 13.09L83.99 13.09Q84.39 13.08 84.63 13.01L84.63 13.01L84.63 13.01Q84.87 12.95 84.99 12.78L84.99 12.78L84.99 12.78Q85.12 12.61 85.15 12.30L85.15 12.30L85.15 12.30Q85.19 11.98 85.19 11.45L85.19 11.45L85.19 9.81L85.19 9.81Q85.19 8.86 85.17 8.33L85.17 8.33L85.17 8.33Q85.15 7.80 85.03 7.55L85.03 7.55L85.03 7.55Q84.91 7.29 84.66 7.25L84.66 7.25L84.66 7.25Q84.41 7.20 83.96 7.20L83.96 7.20L83.96 6.71L86.41 6.17L86.60 7.91L86.66 7.91L86.66 7.91Q86.84 7.49 87.11 7.14L87.11 7.14L87.11 7.14Q87.39 6.79 87.71 6.54L87.71 6.54L87.71 6.54Q88.03 6.30 88.38 6.16L88.38 6.16L88.38 6.16Q88.73 6.02 89.10 6.02L89.10 6.02L89.10 6.02Q89.54 6.02 89.80 6.24L89.80 6.24L89.80 6.24Q90.06 6.45 90.06 6.82L90.06 6.82L90.06 6.82Q90.06 7.15 89.85 7.34L89.85 7.34L89.85 7.34Q89.64 7.53 89.25 7.53L89.25 7.53L89.25 7.53Q89.03 7.53 88.87 7.48L88.87 7.48L88.87 7.48Q88.72 7.42 88.60 7.36L88.60 7.36L88.60 7.36Q88.48 7.29 88.38 7.24L88.38 7.24L88.38 7.24Q88.27 7.18 88.14 7.18L88.14 7.18L88.14 7.18Q87.77 7.18 87.39 7.67L87.39 7.67L87.39 7.67Q87.01 8.15 86.80 8.89L86.80 8.89L86.80 8.89Q86.69 9.30 86.63 9.81L86.63 9.81L86.63 9.81Q86.56 10.32 86.56 10.88L86.56 10.88ZM90.54 12.81L90.54 12.81L90.54 12.81Q90.54 12.42 90.80 12.15L90.80 12.15L90.80 12.15Q91.07 11.89 91.45 11.89L91.45 11.89L91.45 11.89Q91.84 11.89 92.11 12.15L92.11 12.15L92.11 12.15Q92.37 12.42 92.37 12.81L92.37 12.81L92.37 12.81Q92.37 13.19 92.11 13.45L92.11 13.45L92.11 13.45Q91.84 13.72 91.45 13.72L91.45 13.72L91.45 13.72Q91.07 13.72 90.80 13.45L90.80 13.45L90.80 13.45Q90.54 13.19 90.54 12.81ZM100.09 13.72L100.09 12.40L100.03 12.40L100.03 12.40Q99.53 13.12 98.96 13.42L98.96 13.42L98.96 13.42Q98.39 13.72 97.62 13.72L97.62 13.72L97.62 13.72Q96.82 13.72 96.16 13.43L96.16 13.43L96.16 13.43Q95.49 13.15 95.01 12.63L95.01 12.63L95.01 12.63Q94.53 12.12 94.25 11.41L94.25 11.41L94.25 11.41Q93.98 10.70 93.98 9.86L93.98 9.86L93.98 9.86Q93.98 9.03 94.25 8.32L94.25 8.32L94.25 8.32Q94.53 7.62 95.01 7.10L95.01 7.10L95.01 7.10Q95.49 6.59 96.17 6.31L96.17 6.31L96.17 6.31Q96.84 6.02 97.62 6.02L97.62 6.02L97.62 6.02Q98.29 6.02 98.82 6.24L98.82 6.24L98.82 6.24Q99.34 6.47 99.83 6.96L99.83 6.96L99.83 5.53L99.83 5.53Q99.83 4.73 99.81 4.20L99.81 4.20L99.81 4.20Q99.79 3.67 99.75 3.47L99.75 3.47L99.75 3.47Q99.68 3.16 99.36 3.04L99.36 3.04L99.36 3.04Q99.04 2.91 98.31 2.91L98.31 2.91L98.31 2.49L101.18 1.96L101.18 10.04L101.18 10.04Q101.18 11.00 101.19 11.63L101.19 11.63L101.19 11.63Q101.21 12.25 101.28 12.52L101.28 12.52L101.28 12.52Q101.32 12.68 101.38 12.80L101.38 12.80L101.38 12.80Q101.44 12.91 101.56 12.97L101.56 12.97L101.56 12.97Q101.68 13.03 101.88 13.06L101.88 13.06L101.88 13.06Q102.09 13.09 102.41 13.09L102.41 13.09L102.41 13.57L100.09 13.72ZM99.81 10.23L99.81 9.31L99.81 9.31Q99.81 8.58 99.73 8.20L99.73 8.20L99.73 8.20Q99.65 7.83 99.43 7.55L99.43 7.55L99.43 7.55Q99.11 7.13 98.61 6.91L98.61 6.91L98.61 6.91Q98.11 6.69 97.62 6.69L97.62 6.69L97.62 6.69Q96.61 6.69 96.09 7.53L96.09 7.53L96.09 7.53Q95.56 8.36 95.56 9.79L95.56 9.79L95.56 9.79Q95.56 10.53 95.70 11.13L95.70 11.13L95.70 11.13Q95.83 11.73 96.09 12.16L96.09 12.16L96.09 12.16Q96.35 12.59 96.73 12.82L96.73 12.82L96.73 12.82Q97.12 13.05 97.62 13.05L97.62 13.05L97.62 13.05Q97.87 13.05 98.13 12.99L98.13 12.99L98.13 12.99Q98.39 12.94 98.64 12.82L98.64 12.82L98.64 12.82Q98.88 12.70 99.09 12.54L99.09 12.54L99.09 12.54Q99.30 12.38 99.44 12.17L99.44 12.17L99.44 12.17Q99.64 11.86 99.72 11.42L99.72 11.42L99.72 11.42Q99.81 10.99 99.81 10.23L99.81 10.23ZM109.63 11.89L110.07 12.28L110.07 12.28Q108.88 13.72 107.11 13.72L107.11 13.72L107.11 13.72Q106.29 13.72 105.62 13.45L105.62 13.45L105.62 13.45Q104.94 13.17 104.46 12.68L104.46 12.68L104.46 12.68Q103.98 12.18 103.71 11.49L103.71 11.49L103.71 11.49Q103.45 10.79 103.45 9.95L103.45 9.95L103.45 9.95Q103.45 9.10 103.73 8.37L103.73 8.37L103.73 8.37Q104.01 7.64 104.52 7.13L104.52 7.13L104.52 7.13Q105.03 6.61 105.73 6.31L105.73 6.31L105.73 6.31Q106.44 6.02 107.28 6.02L107.28 6.02L107.28 6.02Q108.64 6.02 109.38 6.75L109.38 6.75L109.38 6.75Q110.12 7.49 110.12 8.86L110.12 8.86L110.12 8.86Q110.12 9.06 110.05 9.10L110.05 9.10L110.05 9.10Q109.97 9.14 109.69 9.14L109.69 9.14L105.08 9.14L105.08 9.14Q105.06 9.25 105.04 9.41L105.04 9.41L105.04 9.41Q105.03 9.58 105.03 9.77L105.03 9.77L105.03 9.77Q105.03 10.50 105.20 11.10L105.20 11.10L105.20 11.10Q105.38 11.69 105.71 12.11L105.71 12.11L105.71 12.11Q106.04 12.53 106.49 12.76L106.49 12.76L106.49 12.76Q106.95 12.99 107.51 12.99L107.51 12.99L107.51 12.99Q108.09 12.99 108.60 12.73L108.60 12.73L108.60 12.73Q109.10 12.47 109.63 11.89L109.63 11.89ZM105.18 8.50L107.76 8.50L107.76 8.50Q108.04 8.50 108.21 8.48L108.21 8.48L108.21 8.48Q108.37 8.47 108.46 8.43L108.46 8.43L108.46 8.43Q108.54 8.39 108.57 8.31L108.57 8.31L108.57 8.31Q108.60 8.23 108.60 8.11L108.60 8.11L108.60 8.11Q108.60 7.46 108.18 7.08L108.18 7.08L108.18 7.08Q107.77 6.69 107.06 6.69L107.06 6.69L107.06 6.69Q105.55 6.69 105.18 8.50L105.18 8.50ZM114.42 13.73L112.06 7.90L112.06 7.90Q111.89 7.48 111.75 7.23L111.75 7.23L111.75 7.23Q111.62 6.99 111.47 6.86L111.47 6.86L111.47 6.86Q111.31 6.73 111.13 6.70L111.13 6.70L111.13 6.70Q110.94 6.66 110.67 6.65L110.67 6.65L110.67 6.16L114.38 6.16L114.38 6.65L114.38 6.65Q114.10 6.66 113.92 6.68L113.92 6.68L113.92 6.68Q113.74 6.69 113.63 6.74L113.63 6.74L113.63 6.74Q113.53 6.79 113.48 6.88L113.48 6.88L113.48 6.88Q113.44 6.97 113.44 7.14L113.44 7.14L113.44 7.14Q113.44 7.38 113.50 7.59L113.50 7.59L113.50 7.59Q113.57 7.80 113.64 8.01L113.64 8.01L115.12 12.07L115.18 12.07L116.45 9.06L116.45 9.06Q116.75 8.36 116.87 7.94L116.87 7.94L116.87 7.94Q117.00 7.52 117.00 7.20L117.00 7.20L117.00 7.20Q117.00 6.87 116.83 6.76L116.83 6.76L116.83 6.76Q116.66 6.65 116.10 6.65L116.10 6.65L116.10 6.16L118.89 6.16L118.89 6.65L118.89 6.65Q118.66 6.65 118.48 6.76L118.48 6.76L118.48 6.76Q118.30 6.87 118.16 7.04L118.16 7.04L118.16 7.04Q118.05 7.20 117.93 7.46L117.93 7.46L117.93 7.46Q117.81 7.71 117.69 7.99L117.69 7.99L117.69 7.99Q117.57 8.27 117.47 8.55L117.47 8.55L117.47 8.55Q117.38 8.82 117.29 8.99L117.29 8.99L115.23 13.73L114.42 13.73Z"></path></g><defs data-v-fde0c5aa=""><linearGradient data-v-fde0c5aa="" gradientTransform="rotate(25)" id="4af28939-50f5-4bb4-af9b-8bc9d8b97b86" x1="0%" y1="0%" x2="100%" y2="0%"><stop data-v-fde0c5aa="" offset="0%" stop-color="#410FF8" stop-opacity="1"></stop><stop data-v-fde0c5aa="" offset="100%" stop-color="#410FF8" stop-opacity="1"></stop></linearGradient></defs><g data-v-fde0c5aa="" id="bc8a6da4-50f2-454b-9180-b91f2f900bc2" stroke="none" fill="url(#4af28939-50f5-4bb4-af9b-8bc9d8b97b86)" transform="matrix(0.28478867273672825,0,0,0.28478867273672825,39.430422654526545,131.7735249448494)"><path d="M77.827 64.674H32.859a1.59 1.59 0 1 1 0-3.176h44.968V48.844H32.859a1.59 1.59 0 1 1 0-3.176h44.968V33.014H32.859a1.59 1.59 0 1 1 0-3.176h45.696c.92-1.471 2.632-2.455 4.657-2.455H99.47v-6.087C99.416 19.993 98.471 19 97.227 19H4.154C2.986 19 2 20.009 2 21.205v54.253h75.827V64.674zm-53.916-.878l-6.438 4.317a1.617 1.617 0 0 1-1.068.381c-.41 0-.828-.139-1.153-.421-.323-.28-.509-.676-.509-1.085s.185-.804.509-1.085l4.506-2.978-4.45-2.935c-.384-.328-.565-.713-.565-1.128 0-.414.18-.799.508-1.085a1.763 1.763 0 0 1 2.274 0l6.339 4.244c.31.255.462.573.462.904s-.15.649-.415.871zm.001-15.67l-6.438 4.317a1.617 1.617 0 0 1-1.068.381c-.41 0-.828-.139-1.153-.421a1.444 1.444 0 0 1-.509-1.085c0-.408.185-.804.509-1.085l4.506-2.978-4.45-2.935c-.379-.323-.565-.719-.565-1.127 0-.408.185-.804.509-1.085a1.759 1.759 0 0 1 2.274 0l6.339 4.243c.31.256.462.574.462.905 0 .33-.152.648-.416.87zm-.001-15.669l-6.438 4.317a1.617 1.617 0 0 1-1.068.381c-.41 0-.828-.139-1.153-.421h-.001a1.443 1.443 0 0 1-.508-1.087c0-.408.186-.803.509-1.084l4.506-2.977-4.45-2.936c-.379-.323-.565-.719-.565-1.127 0-.408.185-.804.509-1.085a1.763 1.763 0 0 1 2.274 0l6.339 4.244c.31.255.462.573.462.904s-.151.648-.416.871z"></path><path d="M83.213 30.558c-1.216 0-2.206.78-2.206 1.738v7.579H126v-7.579c0-.959-.989-1.738-2.206-1.738H83.213zM61.46 95.069H40.124a15.439 15.439 0 0 1-3.346 12.535h28.195c-3.046-3.372-4.323-8.016-3.513-12.535zM126 43.052H81.007v52.314l24.451.031H126V43.052zM95.473 74.307c.363.315.562.74.562 1.197 0 .456-.199.881-.562 1.196a1.93 1.93 0 0 1-1.266.462c-.455 0-.91-.154-1.265-.461l-.008-.007-6.921-6.246c-.269-.242-.416-.567-.416-.913s.147-.671.416-.913l6.922-6.245c.716-.622 1.829-.625 2.538-.006.363.315.562.739.562 1.196s-.199.881-.562 1.196l-5.492 4.772 5.492 4.772zm12.979-10l-7.194 12.031c-.328.553-.951.87-1.601.87-.273 0-.551-.056-.814-.174a1.705 1.705 0 0 1-.942-1.023 1.512 1.512 0 0 1 .146-1.243l.001-.001 7.184-12.031c.467-.79 1.531-1.097 2.419-.699.458.205.803.577.945 1.024a1.51 1.51 0 0 1-.144 1.246zm12.504 6.137l-7.431 6.225a1.91 1.91 0 0 1-1.256.457c-.455 0-.912-.154-1.268-.463-.363-.315-.562-.739-.562-1.196s.199-.881.562-1.196l5.492-4.772-5.492-4.772c-.363-.315-.562-.739-.562-1.196s.199-.881.562-1.196a1.964 1.964 0 0 1 2.531 0l7.424 6.22c.288.241.454.585.454.945s-.165.702-.454.944zM77.827 78.634H2.058v10.964c0 1.195.987 2.205 2.155 2.205h73.614V78.634zM105.47 98.573H81.007v8.689c0 .959.989 1.738 2.206 1.738h40.509c1.216 0 2.206-.78 2.206-1.738v-8.663l-20.458-.026zm-1.236 7.541c-1.279 0-2.32-1.044-2.32-2.328s1.041-2.328 2.32-2.328 2.319 1.044 2.319 2.328-1.041 2.328-2.319 2.328z"></path></g><!----></svg>