<svg data-v-423bf9ae="" xmlns="http://www.w3.org/2000/svg" viewBox="0 0 469.2613675309852 60" class="font"><!----><!----><!----><g data-v-423bf9ae="" id="20fe5dcd-6295-437a-9032-379043144ab8" fill="white" transform="matrix(5.681817956043021,0,0,5.681817956043021,-2.784084758749458,-0.6249991522142402)"><path d="M0.49 10.50L7.76 10.50L7.92 7.99L7.50 7.99C7.22 9.83 6.45 10.01 4.98 10.01C4.28 10.01 3.78 9.98 3.49 9.87C3.19 9.74 3.14 9.51 3.14 8.82L3.14 2.11C3.14 1.33 3.18 1.30 4.48 1.22L4.48 0.81L0.49 0.81L0.49 1.22C1.72 1.30 1.75 1.33 1.75 2.11L1.75 9.20C1.75 9.98 1.72 10.01 0.49 10.09ZM8.32 4.17L8.85 4.24C9.21 4.30 9.30 4.37 9.30 4.87L9.30 8.57C9.30 10.18 10.25 10.67 11.28 10.67C12.47 10.67 13.44 9.86 13.85 9.66L13.99 10.50L16.23 10.50L16.23 10.09C15.26 10.02 15.18 10.00 15.18 9.28L15.18 3.56L15.08 3.47L12.88 3.82L12.88 4.17L13.41 4.24C13.78 4.30 13.86 4.37 13.86 4.87L13.86 8.02C13.86 8.41 13.82 8.72 13.75 8.86C13.43 9.51 12.75 9.91 12.03 9.91C11.21 9.91 10.61 9.41 10.61 8.32L10.61 3.56L10.51 3.47L8.32 3.82ZM17.12 7.14C17.12 9.48 18.27 10.67 20.37 10.67C21.35 10.67 22.67 10.15 23.06 8.65L22.65 8.46C22.22 9.44 21.66 9.94 20.64 9.94C18.97 9.94 18.58 8.20 18.58 6.89C18.58 4.80 19.40 3.96 20.37 3.96C21.01 3.96 21.42 4.42 21.70 5.18C21.78 5.40 21.87 5.54 22.13 5.54C22.41 5.54 22.96 5.36 22.96 4.83C22.96 4.19 22.04 3.47 20.52 3.47C17.98 3.47 17.12 5.28 17.12 7.14ZM24.07 8.68C24.07 9.73 24.77 10.67 26.08 10.67C26.89 10.67 27.72 10.12 28.17 9.83C28.36 10.35 28.59 10.67 29.08 10.67C29.60 10.67 30.20 10.51 30.73 10.25L30.65 9.91C30.45 9.95 30.14 9.98 29.93 9.93C29.68 9.87 29.44 9.60 29.44 8.72L29.44 5.33C29.44 4.52 29.26 3.47 27.15 3.47C25.56 3.47 24.32 4.30 24.32 5.07C24.32 5.52 24.84 5.73 25.10 5.73C25.40 5.73 25.48 5.57 25.55 5.33C25.86 4.30 26.43 3.96 26.99 3.96C27.54 3.96 28.18 4.24 28.18 5.36L28.18 5.95C27.83 6.31 26.47 6.66 25.37 7.01C24.36 7.32 24.07 8.02 24.07 8.68ZM25.48 8.48C25.48 7.83 25.79 7.49 26.57 7.20C27.13 6.99 27.87 6.72 28.18 6.52L28.18 8.50C28.18 9.63 27.31 9.93 26.77 9.93C25.90 9.93 25.48 9.31 25.48 8.48ZM31.36 8.16L31.50 10.00C32.00 10.44 32.86 10.67 33.68 10.67C35.35 10.67 36.30 9.79 36.30 8.60C36.30 7.36 35.55 6.80 34.10 6.36C33.53 6.17 32.61 5.88 32.61 5.10C32.61 4.37 33.17 3.96 33.87 3.96C34.86 3.96 35.34 4.73 35.43 5.59L35.84 5.59L35.84 3.95C35.38 3.61 34.66 3.47 34.03 3.47C32.52 3.47 31.49 4.19 31.49 5.52C31.49 6.68 32.44 7.20 33.60 7.55C34.23 7.74 35.11 8.06 35.11 9.02C35.11 9.73 34.55 10.18 33.81 10.18C32.68 10.18 32.05 9.35 31.77 8.16ZM40.45 10.50L44.79 10.50C46.91 10.50 48.29 9.73 48.29 7.78C48.29 6.13 47.11 5.40 45.75 5.22L45.75 5.19C47.07 4.93 47.84 4.12 47.84 3.04C47.84 2.27 47.53 1.69 46.97 1.32C46.42 0.95 45.61 0.81 44.49 0.81L40.45 0.81L40.45 1.22C41.68 1.30 41.71 1.33 41.71 2.11L41.71 9.20C41.71 9.98 41.68 10.01 40.45 10.09ZM43.09 8.93L43.09 5.53L44.10 5.53C45.84 5.53 46.79 6.40 46.79 7.88C46.79 9.56 45.64 10.01 44.44 10.01C43.32 10.01 43.09 9.80 43.09 8.93ZM43.09 5.04L43.09 2.00C43.09 1.40 43.13 1.30 44.23 1.30C45.25 1.30 46.37 1.68 46.37 3.12C46.37 4.49 45.49 5.04 44.03 5.04ZM49.69 7.13C49.69 9.34 50.64 10.67 52.92 10.67C54.47 10.67 55.27 9.80 55.65 8.69L55.23 8.47C54.84 9.28 54.31 9.95 53.20 9.95C51.46 9.95 51.11 8.27 51.14 6.82L55.17 6.82C55.47 6.82 55.73 6.75 55.73 6.29C55.73 5.46 55.47 3.47 52.91 3.47C50.72 3.47 49.69 5.03 49.69 7.13ZM51.16 6.29C51.16 5.71 51.37 3.96 52.82 3.96C54.12 3.96 54.28 5.29 54.28 5.84C54.28 6.10 54.19 6.29 53.80 6.29ZM56.88 7.14C56.88 9.48 58.03 10.67 60.13 10.67C61.11 10.67 62.43 10.15 62.82 8.65L62.41 8.46C61.98 9.44 61.42 9.94 60.40 9.94C58.73 9.94 58.34 8.20 58.34 6.89C58.34 4.80 59.16 3.96 60.13 3.96C60.77 3.96 61.18 4.42 61.46 5.18C61.54 5.40 61.63 5.54 61.89 5.54C62.17 5.54 62.72 5.36 62.72 4.83C62.72 4.19 61.80 3.47 60.28 3.47C57.74 3.47 56.88 5.28 56.88 7.14ZM63.42 10.50L66.84 10.50L66.84 10.09C65.84 10.02 65.79 10.00 65.79 9.28L65.79 6.94L65.81 6.94C66.39 7.85 67.38 9.07 68.11 9.81C68.63 10.33 69.17 10.50 69.62 10.53L70.67 10.57L70.67 10.18C70.25 10.07 69.90 9.86 69.47 9.42C68.60 8.57 67.51 7.24 66.98 6.48C66.91 6.38 66.88 6.31 67.02 6.16C67.69 5.39 68.14 4.98 68.61 4.63C69.09 4.28 69.44 4.12 70.25 4.03L70.25 3.64L68.81 3.64C68.33 3.64 68.21 3.71 67.93 4.05C67.52 4.54 66.14 6.27 65.81 6.75L65.79 6.75L65.79 0.20L65.69 0.11L63.49 0.46L63.49 0.81L64.02 0.87C64.39 0.91 64.47 0.98 64.47 1.51L64.47 9.28C64.47 10.00 64.43 10.02 63.42 10.09ZM71.16 7.13C71.16 9.34 72.11 10.67 74.40 10.67C75.95 10.67 76.75 9.80 77.13 8.69L76.71 8.47C76.31 9.28 75.78 9.95 74.68 9.95C72.94 9.95 72.59 8.27 72.62 6.82L76.65 6.82C76.94 6.82 77.21 6.75 77.21 6.29C77.21 5.46 76.94 3.47 74.38 3.47C72.20 3.47 71.16 5.03 71.16 7.13ZM72.63 6.29C72.63 5.71 72.84 3.96 74.30 3.96C75.60 3.96 75.75 5.29 75.75 5.84C75.75 6.10 75.67 6.29 75.28 6.29ZM78.12 10.50L81.82 10.50L81.82 10.09C80.57 10.02 80.49 10.00 80.49 9.28L80.49 6.01C80.49 4.93 80.96 4.56 81.28 4.56C81.51 4.56 81.75 4.65 82.15 4.87C82.25 4.93 82.36 4.94 82.43 4.94C82.77 4.94 83.08 4.59 83.08 4.16C83.08 3.85 82.88 3.47 82.33 3.47C81.83 3.47 81.41 3.78 80.49 4.59L80.32 3.47L78.19 3.82L78.19 4.17L78.72 4.24C79.09 4.30 79.17 4.37 79.17 4.87L79.17 9.28C79.17 10.00 79.10 10.02 78.12 10.09Z"></path></g><!----><!----></svg>