<svg data-v-423bf9ae="" xmlns="http://www.w3.org/2000/svg" viewBox="0 0 580 90" class="iconLeftSlogan"><!----><!----><!----><g data-v-423bf9ae="" id="8f7f75e9-5b5c-4dd5-84ad-a946e22b11a8" fill="#d4d4d4" transform="matrix(5.681817956043021,0,0,5.681817956043021,107.21589998246148,-0.6249991522142402)"><path d="M0.49 10.50L7.76 10.50L7.92 7.99L7.50 7.99C7.22 9.83 6.45 10.01 4.98 10.01C4.28 10.01 3.78 9.98 3.49 9.87C3.19 9.74 3.14 9.51 3.14 8.82L3.14 2.11C3.14 1.33 3.18 1.30 4.48 1.22L4.48 0.81L0.49 0.81L0.49 1.22C1.72 1.30 1.75 1.33 1.75 2.11L1.75 9.20C1.75 9.98 1.72 10.01 0.49 10.09ZM8.32 4.17L8.85 4.24C9.21 4.30 9.30 4.37 9.30 4.87L9.30 8.57C9.30 10.18 10.25 10.67 11.28 10.67C12.47 10.67 13.44 9.86 13.85 9.66L13.99 10.50L16.23 10.50L16.23 10.09C15.26 10.02 15.18 10.00 15.18 9.28L15.18 3.56L15.08 3.47L12.88 3.82L12.88 4.17L13.41 4.24C13.78 4.30 13.86 4.37 13.86 4.87L13.86 8.02C13.86 8.41 13.82 8.72 13.75 8.86C13.43 9.51 12.75 9.91 12.03 9.91C11.21 9.91 10.61 9.41 10.61 8.32L10.61 3.56L10.51 3.47L8.32 3.82ZM17.12 7.14C17.12 9.48 18.27 10.67 20.37 10.67C21.35 10.67 22.67 10.15 23.06 8.65L22.65 8.46C22.22 9.44 21.66 9.94 20.64 9.94C18.97 9.94 18.58 8.20 18.58 6.89C18.58 4.80 19.40 3.96 20.37 3.96C21.01 3.96 21.42 4.42 21.70 5.18C21.78 5.40 21.87 5.54 22.13 5.54C22.41 5.54 22.96 5.36 22.96 4.83C22.96 4.19 22.04 3.47 20.52 3.47C17.98 3.47 17.12 5.28 17.12 7.14ZM24.07 8.68C24.07 9.73 24.77 10.67 26.08 10.67C26.89 10.67 27.72 10.12 28.17 9.83C28.36 10.35 28.59 10.67 29.08 10.67C29.60 10.67 30.20 10.51 30.73 10.25L30.65 9.91C30.45 9.95 30.14 9.98 29.93 9.93C29.68 9.87 29.44 9.60 29.44 8.72L29.44 5.33C29.44 4.52 29.26 3.47 27.15 3.47C25.56 3.47 24.32 4.30 24.32 5.07C24.32 5.52 24.84 5.73 25.10 5.73C25.40 5.73 25.48 5.57 25.55 5.33C25.86 4.30 26.43 3.96 26.99 3.96C27.54 3.96 28.18 4.24 28.18 5.36L28.18 5.95C27.83 6.31 26.47 6.66 25.37 7.01C24.36 7.32 24.07 8.02 24.07 8.68ZM25.48 8.48C25.48 7.83 25.79 7.49 26.57 7.20C27.13 6.99 27.87 6.72 28.18 6.52L28.18 8.50C28.18 9.63 27.31 9.93 26.77 9.93C25.90 9.93 25.48 9.31 25.48 8.48ZM31.36 8.16L31.50 10.00C32.00 10.44 32.86 10.67 33.68 10.67C35.35 10.67 36.30 9.79 36.30 8.60C36.30 7.36 35.55 6.80 34.10 6.36C33.53 6.17 32.61 5.88 32.61 5.10C32.61 4.37 33.17 3.96 33.87 3.96C34.86 3.96 35.34 4.73 35.43 5.59L35.84 5.59L35.84 3.95C35.38 3.61 34.66 3.47 34.03 3.47C32.52 3.47 31.49 4.19 31.49 5.52C31.49 6.68 32.44 7.20 33.60 7.55C34.23 7.74 35.11 8.06 35.11 9.02C35.11 9.73 34.55 10.18 33.81 10.18C32.68 10.18 32.05 9.35 31.77 8.16ZM40.45 10.50L44.79 10.50C46.91 10.50 48.29 9.73 48.29 7.78C48.29 6.13 47.11 5.40 45.75 5.22L45.75 5.19C47.07 4.93 47.84 4.12 47.84 3.04C47.84 2.27 47.53 1.69 46.97 1.32C46.42 0.95 45.61 0.81 44.49 0.81L40.45 0.81L40.45 1.22C41.68 1.30 41.71 1.33 41.71 2.11L41.71 9.20C41.71 9.98 41.68 10.01 40.45 10.09ZM43.09 8.93L43.09 5.53L44.10 5.53C45.84 5.53 46.79 6.40 46.79 7.88C46.79 9.56 45.64 10.01 44.44 10.01C43.32 10.01 43.09 9.80 43.09 8.93ZM43.09 5.04L43.09 2.00C43.09 1.40 43.13 1.30 44.23 1.30C45.25 1.30 46.37 1.68 46.37 3.12C46.37 4.49 45.49 5.04 44.03 5.04ZM49.69 7.13C49.69 9.34 50.64 10.67 52.92 10.67C54.47 10.67 55.27 9.80 55.65 8.69L55.23 8.47C54.84 9.28 54.31 9.95 53.20 9.95C51.46 9.95 51.11 8.27 51.14 6.82L55.17 6.82C55.47 6.82 55.73 6.75 55.73 6.29C55.73 5.46 55.47 3.47 52.91 3.47C50.72 3.47 49.69 5.03 49.69 7.13ZM51.16 6.29C51.16 5.71 51.37 3.96 52.82 3.96C54.12 3.96 54.28 5.29 54.28 5.84C54.28 6.10 54.19 6.29 53.80 6.29ZM56.88 7.14C56.88 9.48 58.03 10.67 60.13 10.67C61.11 10.67 62.43 10.15 62.82 8.65L62.41 8.46C61.98 9.44 61.42 9.94 60.40 9.94C58.73 9.94 58.34 8.20 58.34 6.89C58.34 4.80 59.16 3.96 60.13 3.96C60.77 3.96 61.18 4.42 61.46 5.18C61.54 5.40 61.63 5.54 61.89 5.54C62.17 5.54 62.72 5.36 62.72 4.83C62.72 4.19 61.80 3.47 60.28 3.47C57.74 3.47 56.88 5.28 56.88 7.14ZM63.42 10.50L66.84 10.50L66.84 10.09C65.84 10.02 65.79 10.00 65.79 9.28L65.79 6.94L65.81 6.94C66.39 7.85 67.38 9.07 68.11 9.81C68.63 10.33 69.17 10.50 69.62 10.53L70.67 10.57L70.67 10.18C70.25 10.07 69.90 9.86 69.47 9.42C68.60 8.57 67.51 7.24 66.98 6.48C66.91 6.38 66.88 6.31 67.02 6.16C67.69 5.39 68.14 4.98 68.61 4.63C69.09 4.28 69.44 4.12 70.25 4.03L70.25 3.64L68.81 3.64C68.33 3.64 68.21 3.71 67.93 4.05C67.52 4.54 66.14 6.27 65.81 6.75L65.79 6.75L65.79 0.20L65.69 0.11L63.49 0.46L63.49 0.81L64.02 0.87C64.39 0.91 64.47 0.98 64.47 1.51L64.47 9.28C64.47 10.00 64.43 10.02 63.42 10.09ZM71.16 7.13C71.16 9.34 72.11 10.67 74.40 10.67C75.95 10.67 76.75 9.80 77.13 8.69L76.71 8.47C76.31 9.28 75.78 9.95 74.68 9.95C72.94 9.95 72.59 8.27 72.62 6.82L76.65 6.82C76.94 6.82 77.21 6.75 77.21 6.29C77.21 5.46 76.94 3.47 74.38 3.47C72.20 3.47 71.16 5.03 71.16 7.13ZM72.63 6.29C72.63 5.71 72.84 3.96 74.30 3.96C75.60 3.96 75.75 5.29 75.75 5.84C75.75 6.10 75.67 6.29 75.28 6.29ZM78.12 10.50L81.82 10.50L81.82 10.09C80.57 10.02 80.49 10.00 80.49 9.28L80.49 6.01C80.49 4.93 80.96 4.56 81.28 4.56C81.51 4.56 81.75 4.65 82.15 4.87C82.25 4.93 82.36 4.94 82.43 4.94C82.77 4.94 83.08 4.59 83.08 4.16C83.08 3.85 82.88 3.47 82.33 3.47C81.83 3.47 81.41 3.78 80.49 4.59L80.32 3.47L78.19 3.82L78.19 4.17L78.72 4.24C79.09 4.30 79.17 4.37 79.17 4.87L79.17 9.28C79.17 10.00 79.10 10.02 78.12 10.09Z"></path></g><!----><g data-v-423bf9ae="" id="597f40ad-ef39-4134-9ab9-31cf3e5ab5ac" transform="matrix(1.0746268656716418,0,0,1.0746268656716418,-8.634328358208954,-7.564925350360014)" stroke="none" fill="#569cd6"><path d="M13.5 91.32h73.75a5 5 0 0 0 5-5V12.57a5 5 0 0 0-5-5H13.5a5 5 0 0 0-5 5v73.75a5 5 0 0 0 5 5zM53 64.18h26.5a3 3 0 0 1 0 6H53a3 3 0 0 1 0-6zM21.13 31.83a3 3 0 0 1 4.24-4.24l18.74 18.73a3 3 0 0 1 0 4.24L25.37 69.3a3 3 0 0 1-4.24-4.24l16.62-16.62z"></path></g><!----><g data-v-423bf9ae="" id="9656c084-2ff1-4895-a316-41b294d2fb84" fill="#608b4e" transform="matrix(1.5662929968986177,0,0,1.5662929968986177,109.89036447538817,55.771007163080206)"><path d="M0.07 15.74C0.07 15.90 0.32 15.90 0.48 15.90C0.85 15.90 0.84 15.88 0.99 15.44L5.39 3.53C5.47 3.32 5.60 2.93 5.60 2.86C5.60 2.76 5.52 2.70 5.25 2.70C4.87 2.70 4.87 2.74 4.80 2.97L0.36 14.87C0.24 15.19 0.07 15.68 0.07 15.74ZM11.07 15.74C11.07 15.90 11.33 15.90 11.48 15.90C11.86 15.90 11.84 15.88 12.00 15.44L16.39 3.53C16.48 3.32 16.60 2.93 16.60 2.86C16.60 2.76 16.52 2.70 16.25 2.70C15.88 2.70 15.88 2.74 15.81 2.97L11.37 14.87C11.24 15.19 11.07 15.68 11.07 15.74ZM33.94 11.90C33.94 12.39 34.89 12.81 35.74 12.81C36.79 12.81 37.76 12.17 37.76 11.12C37.76 10.25 36.79 9.83 35.99 9.45C35.39 9.16 34.87 8.95 34.87 8.37C34.87 7.67 35.41 7.43 35.85 7.43C36.74 7.43 36.55 8.34 36.90 8.34C37.09 8.34 37.53 8.23 37.53 8.06C37.53 7.67 37.11 7.06 36.04 7.06C35.03 7.06 33.98 7.71 33.98 8.68C33.98 9.62 34.87 10.00 35.63 10.33C36.29 10.61 36.85 10.91 36.85 11.54C36.85 12.14 36.43 12.40 35.97 12.40C35.35 12.40 34.99 12.08 34.69 11.72C34.55 11.54 34.50 11.31 34.40 11.31C34.30 11.31 33.94 11.62 33.94 11.90ZM45.58 10.04C45.58 11.58 46.75 12.85 48.27 12.85C50.04 12.85 51.07 11.58 51.07 9.84C51.07 8.29 50.05 7.01 48.50 7.01C46.75 7.01 45.58 8.37 45.58 10.04ZM46.66 10.23C46.66 8.69 47.05 7.46 48.33 7.46C49.46 7.46 49.98 8.74 49.98 9.74C49.98 10.92 49.74 12.40 48.27 12.40C47.22 12.40 46.66 11.27 46.66 10.23ZM58.90 12.43C58.90 12.59 58.93 12.67 59.12 12.67C59.54 12.67 59.93 12.64 60.28 12.64C60.69 12.64 61.53 12.67 61.80 12.67C61.99 12.67 61.99 12.60 61.99 12.43C61.99 12.26 61.99 12.21 61.82 12.21L60.87 12.21C60.79 12.21 60.75 11.17 60.75 10.23L60.75 7.91C60.75 7.80 60.80 7.78 61.01 7.78L62.58 7.78C62.66 7.78 62.71 7.48 62.71 7.45C62.71 7.35 62.64 7.35 62.57 7.35L61.01 7.35C60.75 7.35 60.69 7.35 60.69 7.15C60.70 6.55 60.72 6.31 60.72 5.71C60.72 4.83 60.76 3.46 61.50 3.46C61.98 3.46 62.03 3.93 62.12 4.58C62.13 4.72 62.22 4.75 62.34 4.75C62.55 4.75 63.06 4.40 63.06 4.05C63.06 3.44 62.41 3.07 61.85 3.07C60.19 3.07 59.63 4.40 59.63 5.87C59.63 6.61 59.65 6.54 59.65 7.22C59.65 7.35 59.64 7.35 59.56 7.35L59.14 7.35C59.01 7.35 58.98 7.39 58.98 7.57C58.98 7.76 59.01 7.80 59.18 7.80L59.64 7.80C59.67 7.80 59.67 9.02 59.67 9.35L59.67 10.19C59.67 10.35 59.68 10.88 59.68 11.37C59.68 11.70 59.68 12.21 59.63 12.21L59.11 12.21C58.94 12.21 58.90 12.29 58.90 12.43ZM70.17 7.78C70.17 7.87 70.20 7.92 70.28 7.92L70.63 7.92C70.76 7.92 70.78 8.19 70.78 8.74C70.78 9.14 70.76 10.77 70.76 11.77C70.76 12.21 70.99 12.77 71.81 12.77C72.30 12.77 73.25 12.36 73.54 12.15C73.61 12.10 73.61 12.08 73.61 12.01C73.61 11.93 73.60 11.80 73.54 11.80C73.40 11.80 72.94 12.03 72.39 12.03C71.79 12.03 71.76 11.63 71.76 11.20L71.76 8.51C71.76 8.15 71.76 7.91 71.82 7.91L73.15 7.91C73.28 7.91 73.32 7.85 73.37 7.66C73.39 7.59 73.42 7.49 73.42 7.43C73.42 7.36 73.39 7.35 73.32 7.35L71.88 7.35C71.76 7.35 71.76 7.35 71.76 7.25C71.76 7.03 71.85 5.95 71.85 5.91C71.85 5.81 71.81 5.74 71.69 5.74C71.62 5.74 71.57 5.78 71.51 5.87L70.24 7.64C70.20 7.69 70.17 7.73 70.17 7.78ZM81.09 7.45C81.09 7.59 81.09 7.67 81.28 7.67L81.51 7.67C81.63 7.67 81.68 7.69 81.73 7.85C82.28 9.45 83.05 11.56 83.19 12.04C83.27 12.31 83.45 12.99 83.66 12.99C83.71 12.99 83.82 12.96 83.87 12.87C84.20 12.29 84.32 12.35 84.55 11.87C84.95 11.03 85.37 9.83 85.72 8.90C85.75 8.83 85.78 8.78 85.81 8.78C85.83 8.78 85.85 8.85 85.88 8.90C86.30 10.14 86.74 11.70 86.84 12.04C86.91 12.31 87.07 12.99 87.30 12.99C87.36 12.99 87.44 12.96 87.50 12.87C87.82 12.32 87.92 12.36 88.14 11.89C88.77 10.57 89.47 8.37 89.77 7.81C89.82 7.70 89.88 7.67 89.98 7.67L90.06 7.67C90.22 7.67 90.24 7.59 90.24 7.45C90.24 7.29 90.22 7.21 90.08 7.21C89.98 7.21 89.63 7.24 89.32 7.24C89.04 7.24 88.59 7.21 88.48 7.21C88.30 7.21 88.28 7.31 88.28 7.45C88.28 7.59 88.30 7.67 88.47 7.67L88.94 7.67C89.05 7.67 89.05 7.76 89.05 7.84C89.05 8.15 88.20 10.70 87.89 11.42C87.84 11.55 87.81 11.62 87.78 11.62C87.75 11.62 87.71 11.56 87.65 11.41C87.29 10.49 86.55 7.92 86.52 7.78C86.52 7.73 86.51 7.67 86.65 7.67L86.94 7.67C87.11 7.67 87.15 7.59 87.15 7.45C87.15 7.29 87.15 7.21 86.95 7.21C86.60 7.21 86.31 7.24 85.95 7.24C85.47 7.24 85.25 7.21 84.90 7.21C84.70 7.21 84.70 7.32 84.70 7.45C84.70 7.59 84.71 7.67 84.90 7.67L85.06 7.67C85.27 7.67 85.41 7.69 85.50 7.85C85.55 7.97 85.57 7.98 85.57 8.06C85.57 8.15 85.54 8.25 85.47 8.43C85.18 9.27 84.62 10.64 84.35 11.31C84.29 11.45 84.27 11.54 84.22 11.54C84.20 11.54 84.17 11.49 84.13 11.41C83.73 10.49 82.91 7.87 82.91 7.77C82.91 7.73 82.95 7.67 83.10 7.67L83.48 7.67C83.65 7.67 83.66 7.59 83.66 7.45C83.66 7.29 83.66 7.21 83.47 7.21C83.22 7.21 82.60 7.24 82.25 7.24C81.84 7.24 81.55 7.21 81.28 7.21C81.09 7.21 81.09 7.32 81.09 7.45ZM97.85 11.61C97.85 12.35 98.38 12.84 99.26 12.84C99.88 12.84 100.59 12.45 101.00 12.19C101.09 12.14 101.11 12.11 101.15 12.24C101.23 12.46 101.29 12.88 101.74 12.88C101.84 12.88 102.07 12.74 102.33 12.56C102.66 12.31 103.04 12.04 103.04 12.01C103.04 11.93 102.89 11.73 102.82 11.73C102.79 11.73 102.37 12.08 102.26 12.08C102.21 12.08 102.00 12.01 102.00 11.70C102.00 11.40 102.09 9.56 102.09 8.85C102.09 7.73 101.65 6.97 100.21 6.97C99.29 6.97 98.04 7.67 98.04 8.85C98.04 9.00 98.10 9.11 98.17 9.11C98.24 9.11 98.74 8.86 98.98 8.69C99.06 8.64 99.08 8.50 99.08 8.41C99.08 7.84 99.11 7.63 99.48 7.48C99.61 7.42 99.78 7.39 99.92 7.39C101.08 7.39 101.09 8.32 101.09 9.31C101.09 9.44 101.09 9.48 101.02 9.49C99.64 9.73 97.85 10.32 97.85 11.61ZM98.91 11.21C98.91 10.58 99.54 10.22 100.20 10.01C100.59 9.88 101.01 9.80 101.05 9.80C101.08 9.80 101.09 9.81 101.09 9.91L101.09 11.75C101.09 11.84 100.31 12.14 99.78 12.14C99.22 12.14 98.91 11.65 98.91 11.21ZM110.56 7.71C110.56 7.76 110.59 7.76 110.66 7.76C110.70 7.76 111.41 7.73 111.50 7.73C111.58 7.73 111.61 9.20 111.61 10.33C111.61 11.24 111.59 12.21 111.50 12.21L110.88 12.21C110.71 12.21 110.71 12.29 110.71 12.43C110.71 12.59 110.73 12.67 110.89 12.67C111.31 12.67 111.79 12.64 112.14 12.64C112.55 12.64 113.40 12.67 113.67 12.67C113.85 12.67 113.85 12.56 113.85 12.43C113.85 12.29 113.83 12.21 113.67 12.21L112.74 12.21C112.64 12.21 112.62 11.47 112.62 10.68C112.62 9.46 112.73 7.87 113.37 7.87C113.61 7.87 113.89 8.32 114.20 8.32C114.46 8.32 114.77 7.85 114.77 7.69C114.77 7.49 114.38 7.04 113.93 7.04C113.48 7.04 112.91 7.49 112.59 8.26C112.52 8.40 112.53 8.46 112.53 8.23C112.53 7.98 112.55 7.64 112.55 7.42C112.55 7.29 112.55 7.29 112.38 7.29C112.28 7.29 111.38 7.32 110.87 7.34C110.67 7.34 110.64 7.34 110.61 7.45C110.60 7.52 110.56 7.66 110.56 7.71ZM122.26 10.01C122.26 11.68 123.23 12.85 124.99 12.85C126.45 12.85 127.44 11.56 127.44 11.48C127.44 11.45 127.20 11.24 127.16 11.24C127.08 11.24 126.49 12.15 125.31 12.15C124.31 12.15 123.31 11.33 123.31 9.88C123.31 9.72 123.33 9.49 123.35 9.42C123.56 9.42 126.32 9.49 126.48 9.49C126.62 9.49 127.27 9.46 127.27 9.28C127.27 8.09 126.56 7.01 125.15 7.01C123.44 7.01 122.26 8.33 122.26 10.01ZM123.38 9.03C123.44 8.34 124.08 7.41 124.98 7.41C125.41 7.41 126.22 7.70 126.22 8.99C126.22 9.04 126.06 9.03 125.71 9.04C125.01 9.07 123.58 9.10 123.51 9.10C123.40 9.10 123.38 9.09 123.38 9.03ZM145.00 10.01C145.00 11.68 145.96 12.85 147.73 12.85C149.18 12.85 150.18 11.56 150.18 11.48C150.18 11.45 149.94 11.24 149.90 11.24C149.81 11.24 149.23 12.15 148.05 12.15C147.04 12.15 146.05 11.33 146.05 9.88C146.05 9.72 146.06 9.49 146.09 9.42C146.30 9.42 149.06 9.49 149.21 9.49C149.35 9.49 150.01 9.46 150.01 9.28C150.01 8.09 149.30 7.01 147.88 7.01C146.17 7.01 145.00 8.33 145.00 10.01ZM146.12 9.03C146.17 8.34 146.82 7.41 147.71 7.41C148.15 7.41 148.96 7.70 148.96 8.99C148.96 9.04 148.79 9.03 148.44 9.04C147.74 9.07 146.31 9.10 146.24 9.10C146.13 9.10 146.12 9.09 146.12 9.03ZM157.82 7.73C157.82 7.77 157.84 7.80 157.89 7.80C157.95 7.80 158.63 7.74 158.68 7.74C158.76 7.74 158.82 7.70 158.83 7.90C158.86 8.33 158.86 8.81 158.86 9.28C158.86 9.73 158.83 12.21 158.75 12.21L158.12 12.21C157.95 12.21 157.93 12.29 157.93 12.43C157.93 12.59 157.93 12.67 158.12 12.67C158.54 12.67 159.04 12.64 159.39 12.64C159.80 12.64 160.30 12.67 160.57 12.67C160.75 12.67 160.75 12.56 160.75 12.43C160.75 12.29 160.75 12.21 160.55 12.21L160.02 12.21C159.89 12.21 159.88 12.21 159.88 11.98C159.88 10.84 159.89 9.67 159.89 8.53C159.89 8.41 159.91 8.36 160.12 8.25C160.40 8.11 160.80 7.85 161.35 7.85C162.40 7.85 162.65 8.62 162.65 9.63C162.65 11.03 162.62 12.21 162.57 12.21L161.97 12.21C161.81 12.21 161.74 12.26 161.74 12.45C161.74 12.61 161.74 12.67 161.95 12.67C162.37 12.67 162.82 12.64 163.17 12.64C163.58 12.64 163.95 12.67 164.22 12.67C164.42 12.67 164.43 12.56 164.43 12.43C164.43 12.25 164.37 12.21 164.19 12.21L163.77 12.21C163.66 12.21 163.66 12.21 163.66 12.08C163.66 11.87 163.73 10.47 163.73 9.70C163.73 8.33 163.48 7.18 161.83 7.18C160.96 7.18 160.44 7.63 160.02 7.90C159.92 7.95 159.87 8.05 159.87 7.90L159.87 7.42C159.87 7.28 159.89 7.21 159.68 7.22C159.28 7.25 158.33 7.31 158.13 7.32C157.93 7.34 157.95 7.35 157.91 7.46C157.88 7.53 157.82 7.67 157.82 7.73ZM171.91 15.02C171.91 16.18 173.38 16.70 174.54 16.70C176.36 16.70 177.66 15.79 177.66 14.34C177.66 12.47 174.78 12.67 173.00 12.56C172.97 12.56 172.83 12.32 172.83 12.18C172.83 12.12 172.84 12.10 172.86 12.10C173.80 11.83 174.64 11.62 175.28 11.37C176.29 10.99 176.92 10.40 176.92 9.20C176.92 8.62 176.75 8.26 176.75 8.20C176.75 8.16 177.38 8.05 177.52 8.04C177.59 8.04 177.60 7.97 177.60 7.91C177.60 7.76 177.53 7.48 177.44 7.48C177.02 7.50 176.47 7.74 176.41 7.74C176.34 7.74 175.74 7.03 174.68 7.03C173.42 7.03 172.17 7.90 172.17 9.16C172.17 10.49 172.94 11.16 173.98 11.45C174.05 11.47 174.10 11.48 174.10 11.49C174.10 11.51 172.70 11.87 172.65 11.89C172.44 11.93 172.37 12.12 172.37 12.38C172.37 12.53 172.38 12.78 172.49 13.06C172.59 13.27 172.86 13.36 173.10 13.36L173.60 13.36C173.89 13.36 173.84 13.36 173.63 13.43C172.93 13.62 171.91 14.11 171.91 15.02ZM172.62 14.92C172.62 14.04 173.73 13.59 174.38 13.59C175.42 13.59 176.78 13.92 176.78 14.67C176.78 15.86 175.57 16.25 174.52 16.25C173.68 16.25 172.62 15.81 172.62 14.92ZM173.15 9.10C173.15 8.19 173.84 7.46 174.61 7.46C175.43 7.46 175.97 8.09 175.97 9.18C175.97 10.43 175.15 11.23 174.64 11.23C174.31 11.23 173.15 10.46 173.15 9.10ZM184.97 7.64C184.97 7.70 185.04 7.70 185.09 7.70C185.15 7.70 185.72 7.67 185.77 7.67C185.86 7.67 185.92 7.66 185.93 7.85C185.98 8.88 185.99 9.87 185.99 10.85C185.99 11.14 185.99 12.21 185.95 12.21L185.25 12.21C185.05 12.21 185.04 12.29 185.04 12.43C185.04 12.59 185.04 12.67 185.21 12.67C185.47 12.67 186.14 12.64 186.49 12.64C186.84 12.64 187.43 12.67 187.70 12.67C187.85 12.67 187.87 12.57 187.87 12.43C187.87 12.28 187.87 12.21 187.70 12.21L187.10 12.21C187.03 12.21 187.03 10.04 187.03 9.70L187.03 7.32C187.03 7.24 187.03 7.20 186.89 7.20C186.82 7.20 186.07 7.24 185.30 7.27C185.14 7.27 185.09 7.27 185.04 7.41C185.00 7.52 184.97 7.60 184.97 7.64ZM185.72 4.86C185.72 5.28 186.03 5.47 186.34 5.47C186.75 5.47 187.24 5.15 187.24 4.65C187.24 4.21 186.91 4.05 186.61 4.05C186.26 4.05 185.72 4.33 185.72 4.86ZM195.45 7.73C195.45 7.77 195.47 7.80 195.52 7.80C195.58 7.80 196.27 7.74 196.31 7.74C196.39 7.74 196.45 7.70 196.46 7.90C196.49 8.33 196.49 8.81 196.49 9.28C196.49 9.73 196.46 12.21 196.38 12.21L195.75 12.21C195.58 12.21 195.57 12.29 195.57 12.43C195.57 12.59 195.57 12.67 195.75 12.67C196.17 12.67 196.67 12.64 197.02 12.64C197.43 12.64 197.93 12.67 198.20 12.67C198.38 12.67 198.38 12.56 198.38 12.43C198.38 12.29 198.38 12.21 198.18 12.21L197.65 12.21C197.53 12.21 197.51 12.21 197.51 11.98C197.51 10.84 197.53 9.67 197.53 8.53C197.53 8.41 197.54 8.36 197.75 8.25C198.03 8.11 198.44 7.85 198.98 7.85C200.03 7.85 200.28 8.62 200.28 9.63C200.28 11.03 200.26 12.21 200.20 12.21L199.60 12.21C199.44 12.21 199.37 12.26 199.37 12.45C199.37 12.61 199.37 12.67 199.58 12.67C200.00 12.67 200.45 12.64 200.80 12.64C201.21 12.64 201.59 12.67 201.85 12.67C202.05 12.67 202.06 12.56 202.06 12.43C202.06 12.25 202.01 12.21 201.82 12.21L201.40 12.21C201.29 12.21 201.29 12.21 201.29 12.08C201.29 11.87 201.36 10.47 201.36 9.70C201.36 8.33 201.11 7.18 199.46 7.18C198.59 7.18 198.07 7.63 197.65 7.90C197.55 7.95 197.50 8.05 197.50 7.90L197.50 7.42C197.50 7.28 197.53 7.21 197.32 7.22C196.91 7.25 195.96 7.31 195.76 7.32C195.57 7.34 195.58 7.35 195.54 7.46C195.51 7.53 195.45 7.67 195.45 7.73ZM209.76 10.01C209.76 11.68 210.73 12.85 212.49 12.85C213.95 12.85 214.94 11.56 214.94 11.48C214.94 11.45 214.70 11.24 214.66 11.24C214.58 11.24 213.99 12.15 212.81 12.15C211.81 12.15 210.81 11.33 210.81 9.88C210.81 9.72 210.83 9.49 210.85 9.42C211.06 9.42 213.82 9.49 213.98 9.49C214.12 9.49 214.77 9.46 214.77 9.28C214.77 8.09 214.06 7.01 212.65 7.01C210.94 7.01 209.76 8.33 209.76 10.01ZM210.88 9.03C210.94 8.34 211.58 7.41 212.48 7.41C212.91 7.41 213.72 7.70 213.72 8.99C213.72 9.04 213.56 9.03 213.21 9.04C212.51 9.07 211.08 9.10 211.01 9.10C210.90 9.10 210.88 9.09 210.88 9.03ZM222.70 10.01C222.70 11.68 223.66 12.85 225.43 12.85C226.88 12.85 227.88 11.56 227.88 11.48C227.88 11.45 227.64 11.24 227.60 11.24C227.51 11.24 226.93 12.15 225.75 12.15C224.74 12.15 223.75 11.33 223.75 9.88C223.75 9.72 223.76 9.49 223.79 9.42C224 9.42 226.76 9.49 226.91 9.49C227.05 9.49 227.71 9.46 227.71 9.28C227.71 8.09 227.00 7.01 225.58 7.01C223.87 7.01 222.70 8.33 222.70 10.01ZM223.82 9.03C223.87 8.34 224.52 7.41 225.41 7.41C225.85 7.41 226.66 7.70 226.66 8.99C226.66 9.04 226.49 9.03 226.14 9.04C225.44 9.07 224.01 9.10 223.94 9.10C223.83 9.10 223.82 9.09 223.82 9.03ZM235.54 7.71C235.54 7.76 235.56 7.76 235.63 7.76C235.68 7.76 236.39 7.73 236.47 7.73C236.56 7.73 236.59 9.20 236.59 10.33C236.59 11.24 236.57 12.21 236.47 12.21L235.86 12.21C235.69 12.21 235.69 12.29 235.69 12.43C235.69 12.59 235.70 12.67 235.87 12.67C236.29 12.67 236.77 12.64 237.12 12.64C237.52 12.64 238.38 12.67 238.64 12.67C238.83 12.67 238.83 12.56 238.83 12.43C238.83 12.29 238.81 12.21 238.64 12.21L237.72 12.21C237.62 12.21 237.59 11.47 237.59 10.68C237.59 9.46 237.71 7.87 238.35 7.87C238.59 7.87 238.87 8.32 239.18 8.32C239.44 8.32 239.75 7.85 239.75 7.69C239.75 7.49 239.36 7.04 238.91 7.04C238.46 7.04 237.89 7.49 237.57 8.26C237.50 8.40 237.51 8.46 237.51 8.23C237.51 7.98 237.52 7.64 237.52 7.42C237.52 7.29 237.52 7.29 237.36 7.29C237.26 7.29 236.36 7.32 235.84 7.34C235.65 7.34 235.62 7.34 235.59 7.45C235.58 7.52 235.54 7.66 235.54 7.71Z"></path></g></svg>